<svg width="264" height="372" viewBox="0 0 264 372" fill="none" xmlns="http://www.w3.org/2000/svg">
<path d="M123.97 355.73C158.89 355.12 187.25 357.82 187.32 361.76C187.39 365.71 159.14 369.4 124.22 370.01C89.29 370.61 60.92 367.91 60.86 363.97C60.79 360.03 89.04 356.34 123.96 355.73H123.97Z" fill="#222222" fill-opacity="0.3"/>
<path d="M105.23 362.34C105.204 362.474 105.139 362.597 105.043 362.693C104.947 362.789 104.824 362.854 104.69 362.88L85.85 366.38C85.348 366.474 84.8322 366.467 84.3333 366.357C83.8344 366.248 83.3627 366.039 82.9464 365.743C82.53 365.447 82.1776 365.07 81.9102 364.635C81.6428 364.2 81.4659 363.715 81.39 363.21L81.38 363.14C81.2186 362.115 81.4701 361.068 82.0793 360.228C82.6885 359.389 83.6057 358.825 84.63 358.66L93.19 357.3L91.51 338.23C91.5004 338.126 91.5114 338.021 91.5425 337.922C91.5735 337.822 91.624 337.73 91.6909 337.65C91.7578 337.57 91.8399 337.504 91.9325 337.456C92.025 337.408 92.1261 337.379 92.23 337.37L103.25 336.41C103.459 336.393 103.666 336.459 103.827 336.594C103.988 336.729 104.09 336.921 104.11 337.13L106.25 361.46C106.26 361.564 106.249 361.669 106.218 361.768C106.186 361.868 106.136 361.96 106.069 362.04C106.002 362.12 105.92 362.186 105.828 362.234C105.735 362.282 105.634 362.311 105.53 362.32L105.23 362.34V362.34ZM144.11 363.25C144.19 363.51 144.43 363.71 144.71 363.74L163.81 365.24C164.318 365.281 164.829 365.219 165.313 365.058C165.796 364.897 166.243 364.641 166.625 364.304C167.008 363.967 167.319 363.557 167.539 363.098C167.76 362.638 167.886 362.139 167.91 361.63L167.92 361.56C167.948 361.046 167.875 360.531 167.705 360.045C167.534 359.559 167.269 359.112 166.926 358.728C166.582 358.345 166.166 358.033 165.702 357.81C165.238 357.587 164.734 357.458 164.22 357.43L155.56 356.98L155.24 337.84C155.239 337.736 155.217 337.634 155.176 337.538C155.135 337.443 155.076 337.357 155.002 337.284C154.927 337.212 154.839 337.155 154.743 337.116C154.647 337.078 154.544 337.059 154.44 337.06L143.37 337.26C143.161 337.265 142.963 337.352 142.817 337.501C142.671 337.651 142.59 337.851 142.59 338.06L143.01 362.48C143.01 362.92 143.38 363.27 143.81 363.26H144.11V363.25Z" fill="black"/>
<path d="M29.6501 162.83L53.2201 299.78C57.1801 322.78 79.3901 340.5 102.75 339.28L140.79 337.28C164.17 336.06 184.39 316.13 185.92 292.82L195.04 154.16C196.34 134.54 190.73 116.36 179.46 102.26C170.44 104.38 153.19 102.23 134.79 96.62C116.77 91.12 101.49 83.47 94.9801 76.77C85.9063 77.616 77.0517 80.0497 68.8201 83.96C59.2265 88.5311 50.7846 95.2026 44.1201 103.48C37.2374 112.073 32.454 122.154 30.1501 132.92C28.0628 142.765 27.893 152.921 29.6501 162.83V162.83ZM138.37 85.03C150.23 88.65 161.09 89.57 164.6 88.39C151.34 79.21 135.02 74.63 117.48 75.51C121.69 78.67 129.43 82.31 138.37 85.03Z" fill="black"/>
<path fill-rule="evenodd" clip-rule="evenodd" d="M154.67 156.66C157.519 154.813 159.975 152.421 161.895 149.621C163.816 146.821 165.163 143.669 165.861 140.346C166.558 137.023 166.59 133.595 165.957 130.259C165.324 126.924 164.037 123.746 162.17 120.91C154.34 108.91 118.78 148.94 118.78 148.94C118.78 148.94 142.69 164.4 154.68 156.66H154.67Z" fill="white"/>
<path d="M133.71 149.8C134.822 149.773 135.917 149.523 136.931 149.065C137.945 148.607 138.857 147.95 139.612 147.133C140.368 146.317 140.952 145.357 141.33 144.311C141.708 143.265 141.873 142.153 141.814 141.042C141.755 139.931 141.474 138.844 140.988 137.843C140.501 136.843 139.819 135.95 138.981 135.218C138.143 134.486 137.167 133.929 136.111 133.581C135.054 133.233 133.939 133.1 132.83 133.19C130.626 133.307 128.559 134.294 127.083 135.935C125.607 137.576 124.843 139.736 124.96 141.94C125.077 144.144 126.064 146.211 127.705 147.687C129.346 149.163 131.506 149.927 133.71 149.81V149.8Z" fill="black"/>
<path fill-rule="evenodd" clip-rule="evenodd" d="M70.12 161.1C67.0918 159.561 64.3981 157.439 62.1942 154.854C59.9902 152.27 58.3195 149.275 57.2783 146.042C56.2372 142.809 55.8463 139.402 56.128 136.017C56.4098 132.632 57.3586 129.336 58.92 126.32C65.46 113.56 105.01 149.66 105.01 149.66C105.01 149.66 82.85 167.54 70.11 161.09L70.12 161.1Z" fill="white"/>
<path d="M90.2499 152.09C89.1579 152.146 88.0657 151.986 87.0355 151.62C86.0053 151.253 85.0574 150.688 84.2458 149.955C83.4342 149.222 82.7749 148.337 82.3055 147.35C81.836 146.362 81.5657 145.292 81.5099 144.2C81.4541 143.108 81.6139 142.016 81.9802 140.986C82.3465 139.955 82.9121 139.008 83.6448 138.196C84.3774 137.384 85.2627 136.725 86.2502 136.256C87.2377 135.786 88.3079 135.516 89.3999 135.46C91.6052 135.347 93.7649 136.115 95.404 137.595C97.043 139.075 98.0272 141.145 98.1399 143.35C98.2526 145.555 97.4846 147.715 96.005 149.354C94.5253 150.993 92.4552 151.977 90.2499 152.09V152.09Z" fill="black" stroke="black" stroke-width="2"/>
<path fill-rule="evenodd" clip-rule="evenodd" d="M61.8601 273.83L50.8201 258.08L53.4101 256.27L63.1501 270.15L64.3601 266.65L55.0501 253.38L57.6401 251.57L65.6401 262.97L66.8601 259.49L59.2801 248.68L61.8801 246.87L68.1401 255.81L73.2401 241.18C73.2401 241.18 58.7001 214.36 55.8101 207.83C50.9401 196.83 18.5701 204.81 18.7301 224.44C18.8901 244.07 56.4801 289.27 56.4801 289.27L61.8601 273.83V273.83ZM225.63 167.16L216.29 183.98L219.06 185.51L227.29 170.69L228.87 174.03L220.99 188.21L223.76 189.74L230.53 177.56L232.1 180.9L225.7 192.44L228.46 193.98L233.76 184.43L240.36 198.44C240.36 198.44 228.7 226.64 226.51 233.43C222.81 244.87 189.79 240.33 187.9 220.79C186.01 201.25 218.66 152.37 218.66 152.37L225.63 167.17V167.16Z" fill="black"/>
<path fill-rule="evenodd" clip-rule="evenodd" d="M35.04 193.64L118.11 250.97L191.37 188.38L185.17 314.18L59.77 322.2L35.04 193.64V193.64Z" fill="white"/>
<path fill-rule="evenodd" clip-rule="evenodd" d="M46.7499 273.6L57.5999 334L88.4799 354.97L110.21 350.68L123.79 342.38L140.42 350.68L164.11 351.01L187.62 325.78L190.44 255.64L192.99 184.82L143.29 298.4L143.2 298.52L119.65 319.72L91.4699 294.92L91.3999 294.83L34.6299 189.73L46.7499 273.61V273.6Z" fill="black" stroke="black"/>
<path fill-rule="evenodd" clip-rule="evenodd" d="M157.53 285.89L156.81 285.62C156.08 285.34 155.61 284.92 155.38 284.35C155.159 283.736 155.159 283.064 155.38 282.45C155.46 282.15 155.56 281.85 155.68 281.56C156.08 280.51 156.56 279.67 157.12 279.04L158.89 279.71C158.55 280.38 158.15 281.29 157.71 282.43C157.608 282.65 157.547 282.888 157.53 283.13C157.55 283.27 157.67 283.39 157.9 283.48L158.03 283.52C158.23 283.6 158.39 283.62 158.51 283.57C158.63 283.51 158.74 283.34 158.86 283.05L159.27 281.97C159.62 281.06 160.27 280.57 161.2 280.53C161.66 280.52 162.11 280.59 162.57 280.77L162.96 280.92C164.71 281.59 165.28 282.7 164.68 284.26C164.409 284.995 164.108 285.719 163.78 286.43C163.62 286.76 163.33 287.17 162.92 287.66L161.16 286.98C161.56 286.17 161.99 285.19 162.43 284.05C162.53 283.81 162.55 283.62 162.52 283.49C162.48 283.35 162.38 283.25 162.21 283.19L162.02 283.12C161.84 283.05 161.7 283.04 161.58 283.09C161.47 283.15 161.36 283.29 161.28 283.53L160.88 284.57C160.72 284.97 160.51 285.31 160.25 285.56C160 285.81 159.75 285.97 159.5 286.04C159.26 286.12 159 286.15 158.7 286.14C158.3 286.12 157.9 286.04 157.53 285.89V285.89ZM165.78 281.11L157.23 277.82L158.67 274.06C158.894 273.353 159.381 272.759 160.03 272.4C160.62 272.11 161.41 272.16 162.41 272.54C163.38 272.91 163.99 273.3 164.23 273.7C164.34 273.91 164.42 274.09 164.45 274.23C164.48 274.37 164.5 274.55 164.5 274.77L168.3 274.57L167.32 277.1L163.88 277.02L163.45 277.65L166.65 278.88L165.78 281.11ZM161.75 276.98L162.22 275.75C162.32 275.49 162.32 275.29 162.22 275.17C162.12 275.04 161.91 274.92 161.59 274.8C161.29 274.68 161.04 274.64 160.88 274.68C160.71 274.71 160.58 274.85 160.49 275.08L160.02 276.32L161.75 276.98ZM165.92 273.31L164.12 272.61L165.51 269.01L167.31 269.7L165.92 273.3V273.31ZM163.44 267.73L161.41 266.94L163.53 261.41L164.65 261.22L171.28 266.79L170.37 269.16L164.72 264.38L163.44 267.73V267.73ZM165.28 256.85L173.84 260.13L172.98 262.36L166.58 259.9L166.28 261.35L164.85 260.8L164.43 259.06L165.28 256.85V256.85Z" fill="white"/>
<path fill-rule="evenodd" clip-rule="evenodd" d="M111.9 162.22C112.135 161.963 112.462 161.809 112.81 161.79C113.157 161.771 113.499 161.89 113.76 162.12L132.95 179.3C133.49 179.78 133.41 180.47 132.78 180.83L116.22 190.17C115.58 190.53 114.52 190.61 113.84 190.35L94.78 182.95C94.1 182.7 93.95 182.05 94.44 181.51L111.9 162.22V162.22Z" fill="#F5A623"/>
<path d="M173.49 82.19C172.89 84.39 172.35 86.61 171.89 88.82C170.53 92.79 157.22 91.82 142.17 86.63C127.12 81.45 116.03 74.03 117.4 70.05C118.4 68.03 119.34 65.95 120.23 63.84C108.48 62.2 100.15 63.19 98.8099 67.08C96.5599 73.6 114.78 85.78 139.51 94.3C164.23 102.81 186.09 104.43 188.33 97.9C189.67 94.02 183.73 88.12 173.49 82.19Z" fill="black"/>
<path d="M190.5 39.31C188.2 43.23 176.2 42.85 159.25 37.01C142.31 31.18 132.61 24.1 133.22 19.59C133.22 19.59 127.61 46.64 117.77 71.42C117.74 75.4 128.18 82.12 142.07 86.91C155.97 91.7 168.34 92.82 170.77 89.66C178.26 64.12 190.44 39.4 190.5 39.31V39.31Z" fill="#5F3EFF"/>
<path d="M196.94 30.31C194.64 34.23 179.65 32.82 162.71 26.99C145.76 21.15 133.08 13.04 133.68 8.53C133.68 8.53 131.06 36.61 121.22 61.39C121.2 65.37 131.63 72.09 145.52 76.89C159.42 81.67 171.79 82.79 174.22 79.63C181.71 54.09 196.88 30.4 196.94 30.31V30.31Z" fill="black"/>
<path d="M197.57 29.78C197.53 29.91 197.47 30.04 197.4 30.16C195.12 34.1 180.12 32.69 163.16 26.85C146.22 21 133.54 12.9 134.14 8.4C134.16 8.25 134.19 8.11 134.24 7.97C135.76 3.57 151.16 4.88 168.65 10.9C186.14 16.93 199.09 25.38 197.57 29.78Z" fill="black"/>
<path fill-rule="evenodd" clip-rule="evenodd" d="M65.7001 196.5C65.0601 196.15 64.6301 196.45 64.7401 197.17L73.6801 255.17C73.7801 255.87 74.3501 256.09 74.9201 255.65L157.95 190.53C158.52 190.08 159.03 190.3 159.08 191.03L163.06 247.97C163.11 248.69 162.63 249 161.99 248.65L65.7001 196.5Z" fill="#FF4329"/>
<path d="M119.05 271.66C119.487 271.646 119.917 271.545 120.314 271.362C120.712 271.18 121.069 270.92 121.365 270.598C121.661 270.276 121.89 269.898 122.038 269.487C122.186 269.075 122.251 268.638 122.228 268.202C122.206 267.765 122.096 267.337 121.906 266.943C121.717 266.549 121.45 266.197 121.122 265.907C120.795 265.617 120.413 265.396 119.998 265.256C119.584 265.115 119.146 265.059 118.71 265.09C117.85 265.151 117.049 265.547 116.478 266.192C115.908 266.838 115.613 267.681 115.657 268.542C115.702 269.402 116.082 270.211 116.716 270.794C117.351 271.377 118.189 271.688 119.05 271.66V271.66ZM119.74 284.8C120.177 284.786 120.607 284.685 121.004 284.502C121.402 284.32 121.759 284.06 122.055 283.738C122.351 283.416 122.58 283.038 122.728 282.627C122.876 282.215 122.941 281.778 122.918 281.342C122.896 280.905 122.786 280.477 122.596 280.083C122.407 279.689 122.14 279.337 121.812 279.047C121.485 278.757 121.103 278.536 120.688 278.396C120.274 278.255 119.836 278.199 119.4 278.23C118.54 278.291 117.739 278.687 117.168 279.332C116.598 279.978 116.303 280.821 116.347 281.682C116.392 282.542 116.772 283.351 117.406 283.934C118.041 284.517 118.879 284.828 119.74 284.8V284.8Z" fill="black"/>
</svg>
