<?xml version="1.0" encoding="UTF-8" standalone="no"?>
<svg width="501px" height="261px" viewBox="0 0 501 261" version="1.1" xmlns="http://www.w3.org/2000/svg" xmlns:xlink="http://www.w3.org/1999/xlink">
    <!-- Generator: Sketch 46.2 (44496) - http://www.bohemiancoding.com/sketch -->
    <title>Artboard</title>
    <desc>Created with Sketch.</desc>
    <defs>
        <filter x="0.0%" y="0.0%" width="100.0%" height="100.0%" filterUnits="objectBoundingBox" id="filter-1">
            <feGaussianBlur stdDeviation="0" in="SourceGraphic"></feGaussianBlur>
        </filter>
        <polygon id="path-2" points="37.5921635 111.8238 74.276765 119.644159 120.310557 105.879232 122.425919 127.027158 116.606335 145.793899 107.024249 150.105655 102.354332 159.563244 87.8540863 157.75372 84.8153023 152.325149 75.9102216 152.325149 71.6671919 157.75372 59.0560623 159.563244 55.1633906 151.420387 41.9765471 146.613839 35.0688024 129.312035"></polygon>
    </defs>
    <g id="Page-1" stroke="none" stroke-width="1" fill="none" fill-rule="evenodd">
        <g id="Artboard">
            <g id="Group-4" transform="translate(0.000000, 3.000000)">
                <g id="ambassador_logo" transform="translate(0.000000, 124.000000)" fill-rule="nonzero">
                    <g id="Group-17">
                        <g id="Group-17-Copy">
                            <g id="Group-17">
                                <g id="Group-7" transform="translate(0.000000, 0.332228)">
                                    <g id="M-Copy-5" transform="translate(105.545455, 70.735913)">
                                        <g id="Group-Copy-18">
                                            <path d="M0.0321061281,17.473507 L0.0321061281,17.473507 L0.127215646,24.0352617 C0.144703743,25.2417929 1.06656343,26.5875051 2.18621234,27.038611 L38.0452938,41.4862137 C39.1639512,41.9369202 40.9799741,41.9401046 42.0992798,41.4924341 L76.2431891,27.8364508 C77.3633388,27.3884428 78.2764752,26.0461831 78.2846214,24.8376759 L78.3293302,18.2050219 C78.3374947,16.9938055 77.4409099,15.6468287 76.3267928,15.1904138 L40.37347,0.461590051 C39.2617342,0.00615062286 37.4510767,0.00452284573 36.3345719,0.460133214 L2.02202382,14.4620016 C0.906028791,14.9174039 0.0146025664,16.2659088 0.0321061281,17.473507 L0.0321061281,17.473507 Z" id="Rectangle-49" fill="#F9634E" opacity="0.800000012"></path>
                                            <path d="M36.3658095,0.369601197 C37.4797513,-0.0863811717 39.2864504,-0.0842764768 40.4027505,0.374946192 L76.2676562,15.1290232 C77.3832554,15.5879576 77.3806731,16.325445 76.2600028,16.7770074 L42.1002219,30.5413332 C40.9803959,30.9925553 39.1677333,30.9926203 38.0499592,30.5408447 L2.13769612,16.0260295 C1.02062385,15.5745376 1.01859462,14.8386761 2.13202783,14.3829019 L36.3658095,0.369601197 L36.3658095,0.369601197 Z" id="Rectangle-49-Copy-4" fill="#FFFFFF" opacity="0.480000019"></path>
                                        </g>
                                    </g>
                                    <g id="M-Copy-6" transform="translate(154.636364, 90.308642)">
                                        <g id="Group-Copy-18">
                                            <path d="M0.0321061281,17.473507 L0.0321061281,17.473507 L0.127215646,24.0352617 C0.144703743,25.2417929 1.06656343,26.5875051 2.18621234,27.038611 L38.0452938,41.4862137 C39.1639512,41.9369202 40.9799741,41.9401046 42.0992798,41.4924341 L76.2431891,27.8364508 C77.3633388,27.3884428 78.2764752,26.0461831 78.2846214,24.8376759 L78.3293302,18.2050219 C78.3374947,16.9938055 77.4409099,15.6468287 76.3267928,15.1904138 L40.37347,0.461590051 C39.2617342,0.00615062286 37.4510767,0.00452284573 36.3345719,0.460133214 L2.02202382,14.4620016 C0.906028791,14.9174039 0.0146025664,16.2659088 0.0321061281,17.473507 L0.0321061281,17.473507 Z" id="Rectangle-49" fill="#F9634E" opacity="0.800000012"></path>
                                            <path d="M36.3658095,0.369601197 C37.4797513,-0.0863811717 39.2864504,-0.0842764768 40.4027505,0.374946192 L76.2676562,15.1290232 C77.3832554,15.5879576 77.3806731,16.325445 76.2600028,16.7770074 L42.1002219,30.5413332 C40.9803959,30.9925553 39.1677333,30.9926203 38.0499592,30.5408447 L2.13769612,16.0260295 C1.02062385,15.5745376 1.01859462,14.8386761 2.13202783,14.3829019 L36.3658095,0.369601197 L36.3658095,0.369601197 Z" id="Rectangle-49-Copy-4" fill="#FFFFFF" opacity="0.480000019"></path>
                                        </g>
                                    </g>
                                    <g id="M-Copy-7" transform="translate(308.454545, 72.246914)">
                                        <g id="Group-Copy-18">
                                            <path d="M0.0321061281,17.473507 L0.0321061281,17.473507 L0.127215646,24.0352617 C0.144703743,25.2417929 1.06656343,26.5875051 2.18621234,27.038611 L38.0452938,41.4862137 C39.1639512,41.9369202 40.9799741,41.9401046 42.0992798,41.4924341 L76.2431891,27.8364508 C77.3633388,27.3884428 78.2764752,26.0461831 78.2846214,24.8376759 L78.3293302,18.2050219 C78.3374947,16.9938055 77.4409099,15.6468287 76.3267928,15.1904138 L40.37347,0.461590051 C39.2617342,0.00615062286 37.4510767,0.00452284573 36.3345719,0.460133214 L2.02202382,14.4620016 C0.906028791,14.9174039 0.0146025664,16.2659088 0.0321061281,17.473507 L0.0321061281,17.473507 Z" id="Rectangle-49" fill="#F9634E" opacity="0.800000012"></path>
                                            <path d="M36.3658095,0.369601197 C37.4797513,-0.0863811717 39.2864504,-0.0842764768 40.4027505,0.374946192 L76.2676562,15.1290232 C77.3832554,15.5879576 77.3806731,16.325445 76.2600028,16.7770074 L42.1002219,30.5413332 C40.9803959,30.9925553 39.1677333,30.9926203 38.0499592,30.5408447 L2.13769612,16.0260295 C1.02062385,15.5745376 1.01859462,14.8386761 2.13202783,14.3829019 L36.3658095,0.369601197 L36.3658095,0.369601197 Z" id="Rectangle-49-Copy-4" fill="#FFFFFF" opacity="0.480000019"></path>
                                        </g>
                                    </g>
                                    <g id="M-Copy-3" transform="translate(144.818182, 0.000000)">
                                        <g id="Group-Copy-18">
                                            <path d="M0.0822973538,44.7238572 L0.0822973538,44.7238572 L0.326090738,61.5188245 C0.370917823,64.60697 2.73391259,68.0513524 5.60389873,69.2059687 L97.5211644,106.184952 C100.388609,107.338546 105.043604,107.346696 107.912711,106.200873 L195.433491,71.2480585 C198.304761,70.1013713 200.645395,66.6658257 200.666276,63.5726229 L200.780878,46.5961869 C200.801806,43.4960498 198.503598,40.0484307 195.647792,38.8802258 L103.488958,1.18145073 C100.639255,0.0157426657 95.998013,0.0115763313 93.1360862,1.17772192 L5.18303575,37.0158374 C2.32241557,38.1814506 0.0374306291,41.632981 0.0822973538,44.7238572 L0.0822973538,44.7238572 Z" id="Rectangle-49" fill="#F9634E" opacity="0.800000012"></path>
                                            <path d="M93.2161573,0.946003063 C96.0715144,-0.221094666 100.70261,-0.215707649 103.564012,0.959683707 L195.496207,38.7230952 C198.355813,39.8977485 198.349194,41.7853651 195.476589,42.9411498 L107.915126,78.1712694 C105.044686,79.3261833 100.398304,79.3263496 97.5331233,78.1700192 L5.47953752,41.0190041 C2.61615607,39.8633997 2.61095457,37.9799448 5.46500804,36.8133799 L93.2161573,0.946003063 L93.2161573,0.946003063 Z" id="Rectangle-49-Copy-4" fill="#FFFFFF" opacity="0.480000019"></path>
                                        </g>
                                    </g>
                                    <g id="M-Copy-2" transform="translate(0.000000, 18.882716)">
                                        <g id="Group-Copy-18">
                                            <path d="M0.0575412392,31.4091211 L0.0575412392,31.4091211 L0.227998402,43.20406 C0.259340917,45.3728339 1.91151612,47.7917895 3.9181731,48.602665 L68.1855296,74.5726379 C70.1904096,75.3827954 73.4451218,75.3885195 75.4511638,74.5838191 L136.644555,50.0368045 C138.652109,49.2314974 140.28865,46.8187478 140.30325,44.6464222 L140.383378,32.7240397 C140.398011,30.5468442 138.791134,28.1256155 136.794391,27.3051967 L72.3581333,0.82972112 C70.3656583,0.0110559179 67.1205619,0.00812994261 65.11954,0.827102414 L3.62391118,25.9958552 C1.62380276,26.8144538 0.026171009,29.2384294 0.0575412392,31.4091211 L0.0575412392,31.4091211 Z" id="Rectangle-49" fill="#F9634E" opacity="0.800000012"></path>
                                            <path d="M65.1755246,0.664368563 C67.1719531,-0.15527259 70.4099551,-0.151489341 72.4106103,0.673976344 L136.688405,27.1948455 C138.687804,28.0197929 138.683176,29.3454473 136.674688,30.1571434 L75.4528522,54.8989068 C73.4458777,55.7099913 70.197188,55.7101081 68.1938911,54.8980287 L3.83122135,28.8072395 C1.82918229,27.99567 1.82554547,26.6729383 3.82106253,25.8536714 L65.1755246,0.664368563 L65.1755246,0.664368563 Z" id="Rectangle-49-Copy-4" fill="#FFFFFF" opacity="0.480000019"></path>
                                        </g>
                                    </g>
                                </g>
                            </g>
                        </g>
                    </g>
                </g>
                <g id="Group-17-Copy" transform="translate(172.000000, 0.000000)">
                    <g id="Group-16">
                        <ellipse id="Oval-8-Copy-10" fill-opacity="0.300000012" fill="#222222" filter="url(#filter-1)" transform="translate(78.576134, 166.928571) scale(1, -1) translate(-78.576134, -166.928571) " cx="78.5761338" cy="166.928571" rx="36.05695" ry="4.07142857"></ellipse>
                        <path d="M37.3520065,104.055582 L45.88748,107.632303 C45.88748,107.632303 41.1490434,74.4444098 32.9197112,66.900149 C24.690379,59.3558883 8.95312161,70.0694774 11.7389519,76.3265547 C13.3931267,80.0418922 19.1676795,96.4355883 19.1676795,96.4355883 L27.3237591,99.8533269 L25.9215725,93.7572981 L27.6782131,93.3502438 L29.3713931,100.711371 L31.3140658,101.525432 L29.5272675,93.7572981 L31.2839081,93.3502438 L33.3616998,102.383477 L35.3043724,103.197538 L33.1329625,93.7572981 L34.8896031,93.3502438 L37.3520065,104.055582 Z" id="Combined-Shape-Copy-13" fill="#000000" transform="translate(28.650071, 85.970537) scale(-1, 1) rotate(50.000000) translate(-28.650071, -85.970537) "></path>
                        <path d="M137.399406,98.6270108 L145.934879,102.203731 C145.934879,102.203731 141.196443,69.0158383 132.967111,61.4715776 C124.737779,53.9273169 109.000521,64.640906 111.786351,70.8979833 C113.440526,74.6133208 119.215079,91.0070168 119.215079,91.0070168 L127.371159,94.4247555 L125.968972,88.3287266 L127.725613,87.9216724 L129.418793,95.2827998 L131.361465,96.096861 L129.574667,88.3287266 L131.331308,87.9216724 L133.409099,96.9549053 L135.351772,97.7689664 L133.180362,88.3287266 L134.937003,87.9216724 L137.399406,98.6270108 Z" id="Combined-Shape-Copy-14" fill="#000000" transform="translate(128.697471, 80.541966) rotate(50.000000) translate(-128.697471, -80.541966) "></path>
                        <g id="Group-12-Copy-8" transform="translate(55.139116, 148.380952)" fill="#000000">
                            <path d="M7.7583339,0.925621444 C7.10076544,0.914101038 6.55852797,1.43222377 6.54682769,2.1050145 L6.33083944,14.5247964 C6.31931149,15.1876776 6.85191001,15.7345437 7.50059927,15.7459085 L12.3296249,15.8305116 C12.9871934,15.842032 13.5294308,15.3239093 13.5411311,14.6511186 L13.7571194,2.23133668 C13.7686473,1.56845547 13.2360488,1.02158939 12.5873595,1.01022455 L7.7583339,0.925621444 Z" id="Line-Copy-18" fill-rule="nonzero" transform="translate(10.043979, 8.378067) rotate(-3.000000) translate(-10.043979, -8.378067) "></path>
                            <path d="M0,16.4814986 C0,15.3739975 0.908169982,14.4761905 2.00968329,14.4761905 L11.511673,14.4761905 C12.6215904,14.4761905 14.1722256,15.0937657 14.9765966,15.8569905 L14.6013046,15.5008959 C15.0005508,15.8797193 14.8822009,16.2457153 14.3293368,16.3193872 L6.65152134,17.3424932 L1.95970001,18.441898 C0.87738758,18.6955094 0,18.0056552 0,16.8957939 L0,16.4814986 Z" id="Rectangle-7-Copy-15"></path>
                        </g>
                        <g id="Group-12-Copy-9" transform="translate(97.217423, 157.880952) scale(-1, 1) translate(-97.217423, -157.880952) translate(89.717423, 148.380952)" fill="#000000">
                            <path d="M7.7583339,0.925621444 C7.10076544,0.914101038 6.55852797,1.43222377 6.54682769,2.1050145 L6.33083944,14.5247964 C6.31931149,15.1876776 6.85191001,15.7345437 7.50059927,15.7459085 L12.3296249,15.8305116 C12.9871934,15.842032 13.5294308,15.3239093 13.5411311,14.6511186 L13.7571194,2.23133668 C13.7686473,1.56845547 13.2360488,1.02158939 12.5873595,1.01022455 L7.7583339,0.925621444 Z" id="Line-Copy-18" fill-rule="nonzero" transform="translate(10.043979, 8.378067) rotate(-3.000000) translate(-10.043979, -8.378067) "></path>
                            <path d="M0,16.4814986 C0,15.3739975 0.908169982,14.4761905 2.00968329,14.4761905 L11.511673,14.4761905 C12.6215904,14.4761905 14.1722256,15.0937657 14.9765966,15.8569905 L14.6013046,15.5008959 C15.0005508,15.8797193 14.8822009,16.2457153 14.3293368,16.3193872 L6.65152134,17.3424932 L1.95970001,18.441898 C0.87738758,18.6955094 0,18.0056552 0,16.8957939 L0,16.4814986 Z" id="Rectangle-7-Copy-15"></path>
                        </g>
                        <path d="M30.2220299,48.4593768 C27.0476692,21.696002 46.3317721,0 73.2788747,0 L83.840658,0 C110.794657,0 130.07173,21.6971253 126.897503,48.4593768 L117.206951,130.161455 C115.776404,142.22255 104.759632,152 92.6128669,152 L64.5066658,152 C52.3542753,152 41.3424546,142.216866 39.9125817,130.161455 L30.2220299,48.4593768 Z" id="Rectangle-2-Copy-16" fill="#000000"></path>
                        <g id="Rectangle-2-Copy-17">
                            <use fill="#CF0019" fill-rule="evenodd" xlink:href="#path-2"></use>
                            <path stroke="#000000" stroke-width="1" d="M38.010702,112.424259 L35.5827936,129.250955 L42.3579566,146.220683 L55.5264389,151.020538 L59.348712,159.016132 L71.3970996,157.287354 L75.6664178,151.825149 L85.1084216,151.825149 L88.1668855,157.288877 L102.063428,159.023063 L106.655392,149.723344 L116.19555,145.430455 L121.918304,126.975969 L119.87334,106.531842 L74.2975372,120.159822 L38.010702,112.424259 Z"></path>
                        </g>
                        <path d="M89.6749202,119.474558 L89.6749202,118.892409 C89.6749202,118.294351 89.8476511,117.839452 90.1931181,117.527699 C90.5385852,117.215945 90.9933904,117.040984 91.5575476,117.00281 C91.8047625,116.983723 92.045635,116.97418 92.2801723,116.97418 C93.148594,116.97418 93.8902277,117.0887 94.5050956,117.317743 L94.5050956,118.758801 C93.9282607,118.695178 93.1676108,118.663367 92.223123,118.663367 C91.9442138,118.663367 91.7572207,118.685635 91.662138,118.730171 C91.5670553,118.774707 91.5195147,118.892408 91.5195147,119.083278 L91.5195147,119.188256 C91.5195147,119.353676 91.5543778,119.471377 91.6241051,119.541362 C91.6938324,119.611348 91.8491318,119.64634 92.0900079,119.64634 L92.9837805,119.64634 C93.738103,119.64634 94.2610498,119.973995 94.5526367,120.629314 C94.6920913,120.947429 94.7618175,121.294171 94.7618175,121.669547 L94.7618175,121.984481 C94.7618175,123.40964 94.1184344,124.122209 92.831649,124.122209 C91.9061777,124.122209 91.3008271,124.107894 91.0155791,124.079264 C90.7303311,124.050633 90.3563449,123.95679 89.8936092,123.797732 L89.8936092,122.356674 C90.5908821,122.42666 91.4117502,122.461652 92.356238,122.461652 C92.5590811,122.461652 92.7032876,122.431432 92.788862,122.37099 C92.8744364,122.310547 92.917223,122.210342 92.917223,122.070371 L92.917223,121.917677 C92.917223,121.771343 92.8823598,121.664776 92.8126326,121.597972 C92.7429053,121.531167 92.6097915,121.497766 92.4132873,121.497766 L91.5575476,121.497766 C91.21525,121.497766 90.9189135,121.440506 90.6685291,121.325984 C90.4181447,121.211462 90.2327363,121.077855 90.1122983,120.92516 C89.9918602,120.772464 89.8936096,120.591141 89.8175435,120.381184 C89.7224608,120.088518 89.6749202,119.786312 89.6749202,119.474558 Z M95.4083764,124.045862 L95.4083764,117.060071 L98.5175642,117.060071 C99.1894817,117.060071 99.7124285,117.23026 100.08642,117.570644 C100.460412,117.911028 100.647405,118.4884 100.647405,119.302777 C100.647405,120.098067 100.536477,120.635674 100.314618,120.915616 C100.19418,121.055587 100.088006,121.155792 99.9960923,121.216234 C99.904179,121.276676 99.7789887,121.338708 99.6205176,121.402331 L100.818553,124.045862 L98.7172368,124.045862 L97.8234641,121.574113 L97.252971,121.440505 L97.252971,124.045862 L95.4083764,124.045862 Z M97.2624792,120.047164 L98.2798587,120.047164 C98.5017182,120.047164 98.6427554,119.993085 98.7029744,119.884926 C98.7631935,119.776767 98.7933025,119.595443 98.7933025,119.34095 C98.7933025,119.086458 98.7568547,118.905134 98.683958,118.796975 C98.6110613,118.688815 98.4763629,118.634737 98.2798587,118.634737 L97.2624792,118.634737 L97.2624792,120.047164 Z M101.065767,122.013111 L101.065767,120.543423 L104.051348,120.543423 L104.051348,122.013111 L101.065767,122.013111 Z M104.403152,118.720627 L104.403152,117.060071 L108.976605,117.060071 L109.423492,117.804458 L107.24611,124.045862 L105.287416,124.045862 L107.170044,118.720627 L104.403152,118.720627 Z M112.751369,117.060071 L112.751369,124.045862 L110.906774,124.045862 L110.906774,118.816062 L109.784804,119.00693 L109.784804,117.833088 L110.92579,117.060071 L112.751369,117.060071 Z" id="SR-71-Copy-11" fill="#FFFFFF" transform="translate(101.213144, 120.548194) rotate(-15.000000) translate(-101.213144, -120.548194) "></path>
                        <path d="M66.6582548,80.4736876 C66.6582548,79.3708035 67.5537271,78.4767393 68.664109,78.4767393 L80.8780281,78.4767393 C81.9858308,78.4767393 83.1881792,79.3185554 83.5628731,80.3551197 L91.0450113,101.05393 C91.4200076,102.091331 90.875657,102.655803 89.8194237,102.311538 L68.5628332,95.3832263 C67.5109636,95.040383 66.6582548,93.8636652 66.6582548,92.7655054 L66.6582548,80.4736876 Z" id="Rectangle-4-Copy-7" fill="#F5A623" transform="translate(78.910850, 90.444639) rotate(-315.000000) translate(-78.910850, -90.444639) "></path>
                    </g>
                    <g id="Group-13-Copy" transform="translate(23.589285, 3.619048)">
                        <path d="M55.8882725,13.1190476 L55.8882725,0" id="Line-Copy-3" stroke="#333333" stroke-width="12" stroke-linecap="square"></path>
                        <g id="Group-2-Copy" transform="translate(0.000000, 20.809524)">
                            <path d="M15.9933468,0 C7.16046524,0 0,7.16201474 0,15.9969857 L0,39.4383075 C0,48.2731988 7.11325565,54.5619654 15.8788258,53.4857751 L47.6691605,49.5827262 C52.0529405,49.0445089 59.1697357,49.0456486 63.5442323,49.5827262 L95.334567,53.4857751 C104.1042,54.5624642 111.213393,48.2732785 111.213393,39.4383075 L111.213393,15.9969857 C111.213393,7.16209446 104.044743,0 95.2200461,0 L15.9933468,0 Z" id="Shape" stroke="#000000" stroke-width="2" fill="#333333" fill-rule="nonzero"></path>
                            <ellipse id="Oval-9" fill="#80FF00" cx="9.7711582" cy="10.7278912" rx="2.55976821" ry="2.58503401"></ellipse>
                        </g>
                    </g>
                </g>
            </g>
        </g>
    </g>
</svg>