<?xml version="1.0" encoding="UTF-8" standalone="no"?>
<svg width="501px" height="261px" viewBox="0 0 501 261" version="1.1" xmlns="http://www.w3.org/2000/svg" xmlns:xlink="http://www.w3.org/1999/xlink">
    <!-- Generator: Sketch 49.1 (51147) - http://www.bohemiancoding.com/sketch -->
    <title>Custom Preset 2</title>
    <desc>Created with Sketch.</desc>
    <defs></defs>
    <g id="Custom-Preset-2" stroke="none" stroke-width="1" fill="none" fill-rule="evenodd">
        <g id="bird-on-bricks" transform="translate(0.000000, 3.000000)">
            <g id="ambassador_logo" transform="translate(0.000000, 124.000000)" fill-rule="nonzero">
                <g id="Group-17">
                    <g id="Group-17-Copy">
                        <g id="Group-17">
                            <g id="Group-7" transform="translate(0.000000, 0.332228)">
                                <g id="M-Copy-5" transform="translate(105.545455, 70.735913)">
                                    <g id="Group-Copy-18">
                                        <path d="M0.0321061281,17.473507 L0.127215646,24.0352617 C0.144703743,25.2417929 1.06656343,26.5875051 2.18621234,27.038611 L38.0452938,41.4862137 C39.1639512,41.9369202 40.9799741,41.9401046 42.0992798,41.4924341 L76.2431891,27.8364508 C77.3633388,27.3884428 78.2764752,26.0461831 78.2846214,24.8376759 L78.3293302,18.2050219 C78.3374947,16.9938055 77.4409099,15.6468287 76.3267928,15.1904138 L40.37347,0.461590051 C39.2617342,0.00615062286 37.4510767,0.00452284573 36.3345719,0.460133214 L2.02202382,14.4620016 C0.906028791,14.9174039 0.0146025664,16.2659088 0.0321061281,17.473507 Z" id="Rectangle-49" fill="#F9634E" opacity="0.800000012"></path>
                                        <path d="M36.3658095,0.369601197 C37.4797513,-0.0863811717 39.2864504,-0.0842764768 40.4027505,0.374946192 L76.2676562,15.1290232 C77.3832554,15.5879576 77.3806731,16.325445 76.2600028,16.7770074 L42.1002219,30.5413332 C40.9803959,30.9925553 39.1677333,30.9926203 38.0499592,30.5408447 L2.13769612,16.0260295 C1.02062385,15.5745376 1.01859462,14.8386761 2.13202783,14.3829019 L36.3658095,0.369601197 Z" id="Rectangle-49-Copy-4" fill="#FFFFFF" opacity="0.480000019"></path>
                                    </g>
                                </g>
                                <g id="M-Copy-6" transform="translate(154.636364, 90.308642)">
                                    <g id="Group-Copy-18">
                                        <path d="M0.0321061281,17.473507 L0.127215646,24.0352617 C0.144703743,25.2417929 1.06656343,26.5875051 2.18621234,27.038611 L38.0452938,41.4862137 C39.1639512,41.9369202 40.9799741,41.9401046 42.0992798,41.4924341 L76.2431891,27.8364508 C77.3633388,27.3884428 78.2764752,26.0461831 78.2846214,24.8376759 L78.3293302,18.2050219 C78.3374947,16.9938055 77.4409099,15.6468287 76.3267928,15.1904138 L40.37347,0.461590051 C39.2617342,0.00615062286 37.4510767,0.00452284573 36.3345719,0.460133214 L2.02202382,14.4620016 C0.906028791,14.9174039 0.0146025664,16.2659088 0.0321061281,17.473507 Z" id="Rectangle-49" fill="#F9634E" opacity="0.800000012"></path>
                                        <path d="M36.3658095,0.369601197 C37.4797513,-0.0863811717 39.2864504,-0.0842764768 40.4027505,0.374946192 L76.2676562,15.1290232 C77.3832554,15.5879576 77.3806731,16.325445 76.2600028,16.7770074 L42.1002219,30.5413332 C40.9803959,30.9925553 39.1677333,30.9926203 38.0499592,30.5408447 L2.13769612,16.0260295 C1.02062385,15.5745376 1.01859462,14.8386761 2.13202783,14.3829019 L36.3658095,0.369601197 Z" id="Rectangle-49-Copy-4" fill="#FFFFFF" opacity="0.480000019"></path>
                                    </g>
                                </g>
                                <g id="M-Copy-7" transform="translate(308.454545, 72.246914)">
                                    <g id="Group-Copy-18">
                                        <path d="M0.0321061281,17.473507 L0.127215646,24.0352617 C0.144703743,25.2417929 1.06656343,26.5875051 2.18621234,27.038611 L38.0452938,41.4862137 C39.1639512,41.9369202 40.9799741,41.9401046 42.0992798,41.4924341 L76.2431891,27.8364508 C77.3633388,27.3884428 78.2764752,26.0461831 78.2846214,24.8376759 L78.3293302,18.2050219 C78.3374947,16.9938055 77.4409099,15.6468287 76.3267928,15.1904138 L40.37347,0.461590051 C39.2617342,0.00615062286 37.4510767,0.00452284573 36.3345719,0.460133214 L2.02202382,14.4620016 C0.906028791,14.9174039 0.0146025664,16.2659088 0.0321061281,17.473507 Z" id="Rectangle-49" fill="#F9634E" opacity="0.800000012"></path>
                                        <path d="M36.3658095,0.369601197 C37.4797513,-0.0863811717 39.2864504,-0.0842764768 40.4027505,0.374946192 L76.2676562,15.1290232 C77.3832554,15.5879576 77.3806731,16.325445 76.2600028,16.7770074 L42.1002219,30.5413332 C40.9803959,30.9925553 39.1677333,30.9926203 38.0499592,30.5408447 L2.13769612,16.0260295 C1.02062385,15.5745376 1.01859462,14.8386761 2.13202783,14.3829019 L36.3658095,0.369601197 Z" id="Rectangle-49-Copy-4" fill="#FFFFFF" opacity="0.480000019"></path>
                                    </g>
                                </g>
                                <g id="M-Copy-3" transform="translate(144.818182, 0.000000)">
                                    <g id="Group-Copy-18">
                                        <path d="M0.0822973538,44.7238572 L0.326090738,61.5188245 C0.370917823,64.60697 2.73391259,68.0513524 5.60389873,69.2059687 L97.5211644,106.184952 C100.388609,107.338546 105.043604,107.346696 107.912711,106.200873 L195.433491,71.2480585 C198.304761,70.1013713 200.645395,66.6658257 200.666276,63.5726229 L200.780878,46.5961869 C200.801806,43.4960498 198.503598,40.0484307 195.647792,38.8802258 L103.488958,1.18145073 C100.639255,0.0157426657 95.998013,0.0115763313 93.1360862,1.17772192 L5.18303575,37.0158374 C2.32241557,38.1814506 0.0374306291,41.632981 0.0822973538,44.7238572 Z" id="Rectangle-49" fill="#F9634E" opacity="0.800000012"></path>
                                        <path d="M93.2161573,0.946003063 C96.0715144,-0.221094666 100.70261,-0.215707649 103.564012,0.959683707 L195.496207,38.7230952 C198.355813,39.8977485 198.349194,41.7853651 195.476589,42.9411498 L107.915126,78.1712694 C105.044686,79.3261833 100.398304,79.3263496 97.5331233,78.1700192 L5.47953752,41.0190041 C2.61615607,39.8633997 2.61095457,37.9799448 5.46500804,36.8133799 L93.2161573,0.946003063 Z" id="Rectangle-49-Copy-4" fill="#FFFFFF" opacity="0.480000019"></path>
                                    </g>
                                </g>
                                <g id="M-Copy-2" transform="translate(0.000000, 18.882716)">
                                    <g id="Group-Copy-18">
                                        <path d="M0.0575412392,31.4091211 L0.227998402,43.20406 C0.259340917,45.3728339 1.91151612,47.7917895 3.9181731,48.602665 L68.1855296,74.5726379 C70.1904096,75.3827954 73.4451218,75.3885195 75.4511638,74.5838191 L136.644555,50.0368045 C138.652109,49.2314974 140.28865,46.8187478 140.30325,44.6464222 L140.383378,32.7240397 C140.398011,30.5468442 138.791134,28.1256155 136.794391,27.3051967 L72.3581333,0.82972112 C70.3656583,0.0110559179 67.1205619,0.00812994261 65.11954,0.827102414 L3.62391118,25.9958552 C1.62380276,26.8144538 0.026171009,29.2384294 0.0575412392,31.4091211 Z" id="Rectangle-49" fill="#F9634E" opacity="0.800000012"></path>
                                        <path d="M65.1755246,0.664368563 C67.1719531,-0.15527259 70.4099551,-0.151489341 72.4106103,0.673976344 L136.688405,27.1948455 C138.687804,28.0197929 138.683176,29.3454473 136.674688,30.1571434 L75.4528522,54.8989068 C73.4458777,55.7099913 70.197188,55.7101081 68.1938911,54.8980287 L3.83122135,28.8072395 C1.82918229,27.99567 1.82554547,26.6729383 3.82106253,25.8536714 L65.1755246,0.664368563 Z" id="Rectangle-49-Copy-4" fill="#FFFFFF" opacity="0.480000019"></path>
                                    </g>
                                </g>
                            </g>
                        </g>
                    </g>
                </g>
            </g>
            <g id="Group-17-Copy" transform="translate(172.000000, 0.000000)">
                <g id="Group-16">
                    <ellipse id="Oval-8-Copy-10" fill-opacity="0.300000012" fill="#222222" fill-rule="nonzero" transform="translate(78.576134, 166.928571) scale(-1, 1) rotate(-180.000000) translate(-78.576134, -166.928571) " cx="78.5761338" cy="166.928571" rx="36.05695" ry="4.07142857"></ellipse>
                    <path d="M37.3520064,104.055582 L45.8874799,107.632303 C45.8874799,107.632303 41.1490433,74.4444099 32.9197111,66.9001491 C24.6903789,59.3558884 8.9531215,70.0694775 11.7389518,76.3265548 C13.3931266,80.0418923 19.1676794,96.4355884 19.1676794,96.4355884 L27.323759,99.853327 L25.9215724,93.7572982 L27.678213,93.3502439 L29.371393,100.711371 L31.3140657,101.525432 L29.5272674,93.7572982 L31.283908,93.3502439 L33.3616997,102.383477 L35.3043723,103.197538 L33.1329624,93.7572982 L34.889603,93.3502439 L37.3520064,104.055582 Z" id="Combined-Shape-Copy-13" fill="#000000" fill-rule="nonzero" transform="translate(28.650071, 85.970537) scale(-1, 1) rotate(50.000000) translate(-28.650071, -85.970537) "></path>
                    <path d="M137.399407,98.6270104 L145.93488,102.203731 C145.93488,102.203731 141.196444,69.0158379 132.967112,61.4715772 C124.73778,53.9273165 109.000522,64.6409056 111.786352,70.8979829 C113.440527,74.6133204 119.21508,91.0070164 119.21508,91.0070164 L127.37116,94.4247551 L125.968973,88.3287262 L127.725614,87.921672 L129.418794,95.2827994 L131.361466,96.0968606 L129.574668,88.3287262 L131.331309,87.921672 L133.4091,96.9549049 L135.351773,97.768966 L133.180363,88.3287262 L134.937004,87.921672 L137.399407,98.6270104 Z" id="Combined-Shape-Copy-14" fill="#000000" fill-rule="nonzero" transform="translate(128.697471, 80.541965) rotate(50.000000) translate(-128.697471, -80.541965) "></path>
                    <g id="Group-12-Copy-8" transform="translate(55.139116, 148.380952)" fill="#000000" fill-rule="nonzero">
                        <path d="M7.75833387,0.925621423 C7.10076541,0.914101017 6.55852794,1.43222375 6.54682766,2.10501448 L6.33083941,14.5247964 C6.31931146,15.1876776 6.85190998,15.7345437 7.50059924,15.7459085 L12.3296249,15.8305116 C12.9871934,15.842032 13.5294308,15.3239093 13.5411311,14.6511186 L13.7571194,2.23133666 C13.7686473,1.56845545 13.2360488,1.02158937 12.5873595,1.01022453 L7.75833387,0.925621423 Z" id="Line-Copy-18" transform="translate(10.043979, 8.378067) rotate(-3.000000) translate(-10.043979, -8.378067) "></path>
                        <path d="M0,16.4814986 C0,15.3739975 0.908169982,14.4761905 2.00968329,14.4761905 L11.511673,14.4761905 C12.6215904,14.4761905 14.1722256,15.0937657 14.9765966,15.8569905 L14.6013046,15.5008959 C15.0005508,15.8797193 14.8822009,16.2457153 14.3293368,16.3193872 L6.65152134,17.3424932 L1.95970001,18.441898 C0.87738758,18.6955094 0,18.0056552 0,16.8957939 L0,16.4814986 Z" id="Rectangle-7-Copy-15"></path>
                    </g>
                    <g id="Group-12-Copy-9" transform="translate(97.217423, 157.880952) scale(-1, 1) translate(-97.217423, -157.880952) translate(89.717423, 148.380952)" fill="#000000" fill-rule="nonzero">
                        <path d="M7.75833387,0.925621423 C7.10076541,0.914101017 6.55852794,1.43222375 6.54682766,2.10501448 L6.33083941,14.5247964 C6.31931146,15.1876776 6.85190998,15.7345437 7.50059924,15.7459085 L12.3296249,15.8305116 C12.9871934,15.842032 13.5294308,15.3239093 13.5411311,14.6511186 L13.7571194,2.23133666 C13.7686473,1.56845545 13.2360488,1.02158937 12.5873595,1.01022453 L7.75833387,0.925621423 Z" id="Line-Copy-18" transform="translate(10.043979, 8.378067) rotate(-3.000000) translate(-10.043979, -8.378067) "></path>
                        <path d="M0,16.4814986 C0,15.3739975 0.908169982,14.4761905 2.00968329,14.4761905 L11.511673,14.4761905 C12.6215904,14.4761905 14.1722256,15.0937657 14.9765966,15.8569905 L14.6013046,15.5008959 C15.0005508,15.8797193 14.8822009,16.2457153 14.3293368,16.3193872 L6.65152134,17.3424932 L1.95970001,18.441898 C0.87738758,18.6955094 0,18.0056552 0,16.8957939 L0,16.4814986 Z" id="Rectangle-7-Copy-15"></path>
                    </g>
                    <path d="M30.2220299,48.4593768 C27.0476692,21.696002 46.3317721,0 73.2788747,0 L83.840658,0 C110.794657,0 130.07173,21.6971253 126.897503,48.4593768 L117.206951,130.161455 C115.776404,142.22255 104.759632,152 92.6128669,152 L64.5066658,152 C52.3542753,152 41.3424546,142.216866 39.9125817,130.161455 L30.2220299,48.4593768 Z" id="Rectangle-2-Copy-16" fill="#000000" fill-rule="nonzero"></path>
                    <g id="Rectangle-2-Copy-17" transform="translate(35.000000, 105.000000)">
                        <g id="path-2-link" fill="#CF0019">
                            <polygon id="path-2" points="2.5921635 6.8238 39.276765 14.644159 85.310557 0.879232 87.425919 22.027158 81.606335 40.793899 72.024249 45.105655 67.354332 54.563244 52.8540863 52.75372 49.8153023 47.325149 40.9102216 47.325149 36.6671919 52.75372 24.0560623 54.563244 20.1633906 46.420387 6.9765471 41.613839 0.0688024 24.312035"></polygon>
                        </g>
                        <polygon id="Shape" stroke="#000000" points="3.010702 7.424259 0.5827936 24.250955 7.3579566 41.220683 20.5264389 46.020538 24.348712 54.016132 36.3970996 52.287354 40.6664178 46.825149 50.1084216 46.825149 53.1668855 52.288877 67.063428 54.023063 71.655392 44.723344 81.19555 40.430455 86.918304 21.975969 84.87334 1.531842 39.2975372 15.159822"></polygon>
                    </g>
                    <path d="M89.6749203,119.474558 L89.6749203,118.892409 C89.6749203,118.294351 89.8476512,117.839452 90.1931182,117.527699 C90.5385853,117.215945 90.9933905,117.040984 91.5575477,117.00281 C91.8047626,116.983723 92.0456351,116.97418 92.2801724,116.97418 C93.1485941,116.97418 93.8902278,117.0887 94.5050957,117.317743 L94.5050957,118.758801 C93.9282608,118.695178 93.1676109,118.663367 92.2231231,118.663367 C91.9442139,118.663367 91.7572208,118.685635 91.6621381,118.730171 C91.5670554,118.774707 91.5195148,118.892408 91.5195148,119.083278 L91.5195148,119.188256 C91.5195148,119.353676 91.5543779,119.471377 91.6241052,119.541362 C91.6938325,119.611348 91.8491319,119.64634 92.090008,119.64634 L92.9837806,119.64634 C93.7381031,119.64634 94.2610499,119.973995 94.5526368,120.629314 C94.6920914,120.947429 94.7618176,121.294171 94.7618176,121.669547 L94.7618176,121.984481 C94.7618176,123.40964 94.1184345,124.122209 92.8316491,124.122209 C91.9061778,124.122209 91.3008272,124.107894 91.0155792,124.079264 C90.7303312,124.050633 90.356345,123.95679 89.8936093,123.797732 L89.8936093,122.356674 C90.5908822,122.42666 91.4117503,122.461652 92.3562381,122.461652 C92.5590812,122.461652 92.7032877,122.431432 92.7888621,122.37099 C92.8744365,122.310547 92.9172231,122.210342 92.9172231,122.070371 L92.9172231,121.917677 C92.9172231,121.771343 92.8823599,121.664776 92.8126327,121.597972 C92.7429054,121.531167 92.6097916,121.497766 92.4132874,121.497766 L91.5575477,121.497766 C91.2152501,121.497766 90.9189136,121.440506 90.6685292,121.325984 C90.4181448,121.211462 90.2327364,121.077855 90.1122984,120.92516 C89.9918603,120.772464 89.8936097,120.591141 89.8175436,120.381184 C89.7224609,120.088518 89.6749203,119.786312 89.6749203,119.474558 Z M95.4083765,124.045862 L95.4083765,117.060071 L98.5175643,117.060071 C99.1894818,117.060071 99.7124286,117.23026 100.08642,117.570644 C100.460412,117.911028 100.647405,118.4884 100.647405,119.302777 C100.647405,120.098067 100.536477,120.635674 100.314618,120.915616 C100.19418,121.055587 100.088006,121.155792 99.9960924,121.216234 C99.9041791,121.276676 99.7789888,121.338708 99.6205177,121.402331 L100.818553,124.045862 L98.7172369,124.045862 L97.8234642,121.574113 L97.2529711,121.440505 L97.2529711,124.045862 L95.4083765,124.045862 Z M97.2624793,120.047164 L98.2798588,120.047164 C98.5017183,120.047164 98.6427555,119.993085 98.7029745,119.884926 C98.7631936,119.776767 98.7933026,119.595443 98.7933026,119.34095 C98.7933026,119.086458 98.7568548,118.905134 98.6839581,118.796975 C98.6110614,118.688815 98.476363,118.634737 98.2798588,118.634737 L97.2624793,118.634737 L97.2624793,120.047164 Z M101.065767,122.013111 L101.065767,120.543423 L104.051348,120.543423 L104.051348,122.013111 L101.065767,122.013111 Z M104.403152,118.720627 L104.403152,117.060071 L108.976605,117.060071 L109.423492,117.804458 L107.24611,124.045862 L105.287416,124.045862 L107.170044,118.720627 L104.403152,118.720627 Z M112.751369,117.060071 L112.751369,124.045862 L110.906774,124.045862 L110.906774,118.816062 L109.784804,119.00693 L109.784804,117.833088 L110.92579,117.060071 L112.751369,117.060071 Z" id="SR-71-Copy-11" fill="#FFFFFF" fill-rule="nonzero" transform="translate(101.213145, 120.548194) rotate(-15.000000) translate(-101.213145, -120.548194) "></path>
                    <path d="M66.6582551,80.4736876 C66.6582551,79.3708035 67.5537274,78.4767393 68.6641093,78.4767393 L80.8780284,78.4767393 C81.9858311,78.4767393 83.1881795,79.3185554 83.5628734,80.3551197 L91.0450116,101.05393 C91.4200079,102.091331 90.8756573,102.655803 89.819424,102.311538 L68.5628335,95.3832263 C67.5109639,95.040383 66.6582551,93.8636652 66.6582551,92.7655054 L66.6582551,80.4736876 Z" id="Rectangle-4-Copy-7" fill="#F5A623" fill-rule="nonzero" transform="translate(78.910850, 90.444639) rotate(45.000000) translate(-78.910850, -90.444639) "></path>
                </g>
                <g id="Group-13-Copy" transform="translate(23.589285, 3.619048)">
                    <path d="M55.8882725,13.1190476 L55.8882725,0" id="Line-Copy-3" stroke="#333333" stroke-width="12" stroke-linecap="square"></path>
                    <g id="Group-2-Copy" transform="translate(0.000000, 20.809524)" fill-rule="nonzero">
                        <path d="M15.9933468,0 C7.16046524,0 0,7.16201474 0,15.9969857 L0,39.4383075 C0,48.2731988 7.11325565,54.5619654 15.8788258,53.4857751 L47.6691605,49.5827262 C52.0529405,49.0445089 59.1697357,49.0456486 63.5442323,49.5827262 L95.334567,53.4857751 C104.1042,54.5624642 111.213393,48.2732785 111.213393,39.4383075 L111.213393,15.9969857 C111.213393,7.16209446 104.044743,0 95.2200461,0 L15.9933468,0 Z" id="Shape" stroke="#000000" stroke-width="2" fill="#333333"></path>
                        <ellipse id="Oval-9" fill="#80FF00" cx="9.7711582" cy="10.7278912" rx="2.55976821" ry="2.58503401"></ellipse>
                    </g>
                </g>
            </g>
            <g id="Group" transform="translate(205.000000, 48.000000)" fill="#FFFFFF" fill-rule="nonzero">
                <polygon id="Shape" points="2.51145067 1.70414182 0 1.70414182 0 0 7 0 7 1.70414182 4.54198452 1.70414182 4.54198452 9 2.51145067 9"></polygon>
                <polygon id="Shape" points="8 0 13.8888926 0 13.8888926 1.70414182 10.1111088 1.70414182 10.1111088 3.51479272 13.3333355 3.51479272 13.3333355 5.21893454 10.1111088 5.21893454 10.1111088 7.29585818 14 7.29585818 14 9 8 9"></polygon>
                <polygon id="Shape" points="16.0000001 0 18.1714315 0 18.1714315 7.29585818 22 7.29585818 22 9 16 9 16 0"></polygon>
                <polygon id="Shape" points="24 0 29.8888965 0 29.8888965 1.70414182 26.1111088 1.70414182 26.1111088 3.51479272 29.3333395 3.51479272 29.3333395 5.21893454 26.1111088 5.21893454 26.1111088 7.29585818 30 7.29585818 30 9 24 9 24 0"></polygon>
                <path d="M31,0 L34.3906248,0 C36.414059,0 38,0.69643005 38,2.89285947 C38,5.03571735 36.3593713,5.94642973 34.3906248,5.94642973 L33.0781296,5.94642973 L33.0781296,9 L31,9 L31,0 Z M34.2265619,4.3392873 C35.3750019,4.3392873 35.9218781,3.85714343 35.9218781,2.89285947 C35.9218781,1.92857171 35.3203143,1.60714248 34.2265619,1.60714248 L33.0781296,1.60714248 L33.0781296,4.3392873 L34.2265619,4.3392873 Z" id="Shape"></path>
                <path d="M44.753729,8.9470549 L43.0820928,5.71764153 L41.9850767,5.71764153 L41.9850767,8.9470549 L40,8.9470549 L40,0 L43.1865631,0 C45.0671621,0 46.5820817,0.635291394 46.5820817,2.80588329 C46.5820817,4.12941113 45.9552228,4.97647138 45.0149233,5.40000151 L47,9 L44.7537289,9 L44.7537289,8.9470549 Z M41.9850694,4.12940738 L42.9776077,4.12940738 C44.0223849,4.12940738 44.5970124,3.652936 44.5970124,2.80587954 C44.5970124,1.90588183 44.022385,1.64117546 42.9776077,1.64117546 L41.9850694,1.64117546 L41.9850694,4.12940738 Z" id="Shape"></path>
                <polygon id="Shape" points="48.0550382 0 53.889908 0 53.889908 1.70414182 50.1467868 1.70414182 50.1467868 3.51479272 53.3394478 3.51479272 53.3394478 5.21893454 50.1467868 5.21893454 50.1467868 7.29585818 54 7.29585818 54 9 48 9 48 0"></polygon>
                <path d="M56.1666601,6.32571508 C56.8333276,6.84000203 57.6666539,7.25143162 58.4444405,7.25143162 C59.3333304,7.25143162 59.7777674,6.9428631 59.7777674,6.42857614 C59.7777674,5.86286049 59.2222113,5.70857439 58.4444405,5.40000222 L57.2222169,4.93714395 C56.2222157,4.57714674 55.3333337,3.80571626 55.3333337,2.57143119 C55.3333337,1.13142769 56.7222242,0 58.666663,0 C59.7222197,0 60.8888877,0.411429585 61.6666584,1.13142769 L60.6111096,2.3657164 C59.9999978,1.90285813 59.388886,1.69714334 58.6666629,1.69714334 C57.9444399,1.69714334 57.4999949,2.00571186 57.4999949,2.46857013 C57.4999949,2.98285709 58.1111146,3.18857188 58.944441,3.49714405 L60.1666646,3.96000232 C61.277777,4.3714319 62,5.09143001 62,6.32571508 C62,7.76571858 60.7222208,9 58.499996,9 C57.2777803,9 56.0000011,8.58857041 55,7.76571493 L56.1666601,6.32571508 Z" id="Shape"></path>
                <polygon id="Shape" points="63.0550382 0 68.889908 0 68.889908 1.70414182 65.1467868 1.70414182 65.1467868 3.51479272 68.3394478 3.51479272 68.3394478 5.21893454 65.1467868 5.21893454 65.1467868 7.29585818 69 7.29585818 69 9 63 9 63 0"></polygon>
                <path d="M71.0526317,0.0532545166 L73.1052602,0.0532545166 L75.4210471,4.52662726 L76.3157784,6.497041 L76.3684176,6.497041 C76.2631542,5.5384595 76.1052591,4.26035463 76.1052591,3.19526787 L76.1052591,0 L78,0 L78,9 L75.9473715,9 L73.6315846,4.52662726 L72.7368458,2.55621352 L72.6842141,2.55621352 C72.7894775,3.56804953 72.9473726,4.73964537 72.9473726,5.80473213 L72.9473726,9 L71,9 L71,0.0532545166 L71.0526317,0.0532545166 Z" id="Shape"></path>
                <path d="M83.2835734,0 C84.3805919,0 85.3208859,0.514283105 85.895522,1.13142723 L84.7984962,2.36571179 C84.3283529,1.95428237 83.9104411,1.697139 83.2835734,1.697139 C82.0298455,1.697139 81.089544,2.72571249 81.089544,4.47428385 C81.089544,6.27428382 81.9253676,7.30285372 83.2313419,7.30285372 C83.9626801,7.30285372 84.4850698,6.99428532 84.9029816,6.53142724 L86,7.71428678 C85.2686618,8.53714192 84.2761213,9 83.1791029,9 C80.8805956,9 79,7.4571434 79,4.5257162 C79.1044631,1.69714264 81.0372976,0 83.2835734,0 Z" id="Shape"></path>
                <polygon id="Shape" points="87.055046 0 92.8899079 0 92.8899079 1.70414182 89.1467789 1.70414182 89.1467789 3.51479272 92.3394478 3.51479272 92.3394478 5.21893454 89.1467789 5.21893454 89.1467789 7.29585818 93 7.29585818 93 9 87 9 87 0"></polygon>
            </g>
        </g>
    </g>
</svg>