<?xml version="1.0" encoding="UTF-8" standalone="no"?>
<svg width="205px" height="45px" viewBox="0 0 205 45" version="1.1" xmlns="http://www.w3.org/2000/svg" xmlns:xlink="http://www.w3.org/1999/xlink">
    <!-- Generator: Sketch 46.2 (44496) - http://www.bohemiancoding.com/sketch -->
    <title>Group 3</title>
    <desc>Created with Sketch.</desc>
    <defs></defs>
    <g id="Page-1" stroke="none" stroke-width="1" fill="none" fill-rule="evenodd">
        <g id="Ambassador" transform="translate(-618.000000, -2833.000000)">
            <g id="Group-18" transform="translate(355.000000, 2833.000000)">
                <g id="Group-3" transform="translate(263.000000, 0.000000)">
                    <path d="M19.6464734,21.6708729 C19.5100469,21.7502912 19.3418933,21.7492323 19.2054668,21.6708729 L11.1816851,17.0211959 C10.8876807,16.8507112 10.8876807,16.426088 11.1806275,16.2556034 L19.2657483,11.5582754 C19.4032324,11.4788571 19.5724435,11.4788571 19.70887,11.5572165 L27.7823576,16.2280717 C28.0774195,16.3985564 28.076362,16.8252974 27.7813,16.9947231 L19.6464734,21.6708729 Z M31.6826748,17.0000176 C31.3876129,16.829533 31.3886704,16.402792 31.6837324,16.2333663 L38.3390189,12.4075218 C38.6330233,12.2380961 39,12.4509371 39,12.7908475 L39,20.4668914 C39,20.8078606 38.6319657,21.0207017 38.3379613,20.8502171 L31.6826748,17.0000176 Z M1.24370204,11.2628393 C0.949697644,11.0923547 0.949697644,10.6677315 1.24370204,10.4972468 L9.3372834,5.81368466 C9.4737099,5.73426635 9.64292106,5.73426635 9.77934756,5.81262575 L17.5461399,10.3066429 C17.8390867,10.4760686 17.8401443,10.9006918 17.5461399,11.0711764 L9.4631342,15.7685045 C9.32565013,15.8479228 9.15749654,15.8479228 9.02001247,15.7685045 L1.24370204,11.2628393 Z M9.30872902,27.6145388 C9.17230252,27.6928982 9.00414893,27.6928982 8.86772243,27.6134799 L0.909509993,22.9892168 C0.616563169,22.8187321 0.616563169,22.3951678 0.909509993,22.2246832 L9.02107004,17.5114715 C9.15855411,17.4320532 9.3267077,17.4320532 9.46419177,17.5104126 L17.4763403,22.1537362 C17.7714022,22.3242208 17.7703447,22.7499029 17.4752827,22.9193287 L9.30872902,27.6145388 Z M29.8837487,27.6039497 C29.7473222,27.6823091 29.5791686,27.6812502 29.4437997,27.6028908 L21.3724273,22.926741 C21.0784229,22.7562564 21.0794804,22.3295154 21.3745424,22.1600897 L29.5104266,17.4828809 C29.6468531,17.4045215 29.8150066,17.4045215 29.9514331,17.4828809 L38.0471296,22.1664431 C38.341134,22.3369277 38.341134,22.7636688 38.0450145,22.9330945 L29.8837487,27.6039497 Z M7.30251919,16.2587801 C7.59652358,16.4282059 7.59652358,16.8528291 7.30357676,17.0233137 L0.663096239,20.8819844 C0.369091846,21.052469 0,20.8406869 0,20.4997176 L0,12.7940242 C0,12.453055 0.368034276,12.2402139 0.663096239,12.4106985 L7.30251919,16.2587801 Z M21.4274209,11.0669408 C21.1344741,10.8975151 21.1334165,10.4728919 21.4274209,10.3024073 L29.1857526,5.79356535 C29.3232367,5.71414705 29.4913903,5.71414705 29.6288744,5.79356535 L37.7541828,10.4961879 C38.0481872,10.6666725 38.0481872,11.0923547 37.7531253,11.2617804 L29.9535483,15.7452084 C29.8171218,15.8235678 29.6500258,15.8235678 29.5135993,15.7452084 L21.4274209,11.0669408 Z M31.6128752,28.8598179 C31.3178133,28.6893332 31.3199284,28.2625922 31.6149904,28.0931665 L38.3390189,24.2450849 C38.6340809,24.0767181 39,24.2885002 39,24.6284106 L39,32.3732837 C39,32.7142529 38.6319657,32.927094 38.3379613,32.7566094 L31.6128752,28.8598179 Z M19.7078125,9.81530832 C19.5703284,9.89472662 19.4021748,9.89472662 19.2646907,9.81636723 L11.5031863,5.32552681 C11.2081243,5.15504218 11.2081243,4.73041898 11.5031863,4.55993435 L19.2794967,0.0595637288 C19.4159232,-0.0198545763 19.5840768,-0.0198545763 19.7215609,0.0595637288 L27.4661442,4.54193287 C27.7601486,4.71135858 27.7601486,5.13598179 27.4672018,5.30646641 L19.7078125,9.81530832 Z M19.0626949,35.2778758 C19.1991214,35.1995164 19.367275,35.2005753 19.5026439,35.2799936 L27.2821271,39.8004836 C27.5761315,39.9709682 27.5761315,40.3955914 27.2821271,40.5650171 L19.7215609,44.9404363 C19.5840768,45.0198546 19.4159232,45.0198546 19.2794967,44.9404363 L11.4418472,40.4051216 C11.1467853,40.234637 11.1478428,39.8078959 11.4439624,39.6384702 L19.0626949,35.2778758 Z M37.6124685,33.8218736 C37.9064729,33.9912993 37.9064729,34.4169814 37.6124685,34.5864071 L29.4448572,39.3133846 C29.3073732,39.3928029 29.1392196,39.3928029 29.0017355,39.3133846 L21.2349432,34.7992482 C20.9398812,34.6287635 20.9419964,34.2030814 21.2370583,34.0336557 L29.4385118,29.3395044 C29.5749383,29.261145 29.7430919,29.261145 29.8795184,29.3405633 L37.6124685,33.8218736 Z M17.3367411,34.0209488 C17.6307455,34.1914334 17.6296879,34.6181744 17.3346259,34.7865412 L9.7116631,39.1503124 C9.5752366,39.2276129 9.40708301,39.2276129 9.27171408,39.1492535 L1.23947176,34.5016943 C0.945467364,34.3312096 0.946524934,33.9044686 1.24052933,33.7350429 L8.86349215,29.3522114 C9.00097622,29.273852 9.16912981,29.2749109 9.30555631,29.3532703 L17.3367411,34.0209488 Z M19.2033517,23.4085454 C19.3397782,23.330186 19.5079318,23.330186 19.6433007,23.4096043 L27.7093853,28.0836363 C28.0044472,28.2541209 28.0033896,28.680862 27.7072701,28.8492288 L19.5089893,33.5423211 C19.3725628,33.6206805 19.2044093,33.6196216 19.0679828,33.5412622 L11.0315102,28.8714659 C10.7375058,28.6999223 10.7385633,28.2752991 11.0336253,28.1048145 L19.2033517,23.4085454 Z M0,24.7141823 C0,24.3732131 0.369091846,24.1614309 0.663096239,24.3319156 L7.14071101,28.0963432 C7.43471541,28.2668279 7.43365784,28.69251 7.13965344,28.8619357 L0.660981099,32.5861247 C0.366976706,32.7555505 0,32.5427094 0,32.2027991 L0,24.7141823 Z" id="Combined-Shape" fill="#F9634E"></path>
                    <g id="Datawire_Logo_KO-Copy" transform="translate(54.000000, 12.000000)" fill="#4A4A4A">
                        <path d="M25.5021088,11.9250087 L30.3570646,11.9250087 C30.5113494,11.9250087 30.6204778,11.7707263 30.570931,11.6221816 L27.9976351,3.91188378 L27.921747,3.91188378 L25.2888696,11.6209065 C25.2380685,11.7694512 25.3465696,11.9250087 25.5021088,11.9250087 L25.5021088,11.9250087 Z M31.2162933,14.0409735 L24.6265736,14.0409735 C24.5306159,14.0409735 24.4446931,14.102814 24.4133343,14.195256 L22.8792662,18.694311 C22.8479075,18.786753 22.7619846,18.8485935 22.6660269,18.8485935 L20.6120313,18.8485935 C20.4558649,18.8485935 20.3473638,18.6911234 20.4000464,18.5413036 L26.8593139,0.332785733 C26.8919269,0.242256356 26.9765954,0.181690928 27.0712988,0.181690928 L28.8844595,0.181690928 C28.9804171,0.181690928 29.0657128,0.242893887 29.0976987,0.334698326 L35.4214965,18.5432162 C35.473552,18.6923984 35.3644237,18.8485935 35.2088845,18.8485935 L33.1536345,18.8485935 C33.0570497,18.8485935 32.9711268,18.7861155 32.9397681,18.6936735 L31.4295325,14.1965311 C31.398801,14.1034516 31.3128781,14.0409735 31.2162933,14.0409735 L31.2162933,14.0409735 Z" id="Fill-1"></path>
                        <path d="M53.741256,2.16823698 L48.1380813,2.16823698 C48.0132737,2.16823698 47.9122986,2.27087944 47.9122986,2.39774808 L47.9122986,18.6190824 C47.9122986,18.745951 47.8113236,18.8485935 47.6871431,18.8485935 L45.6538442,18.8485935 C45.5290365,18.8485935 45.4280615,18.745951 45.4280615,18.6190824 L45.4280615,2.39774808 C45.4280615,2.27087944 45.3270864,2.16823698 45.2022787,2.16823698 L39.674365,2.16823698 C39.5501845,2.16823698 39.4492095,2.06559452 39.4492095,1.93936341 L39.4492095,0.410564494 C39.4492095,0.284333391 39.5501845,0.181690928 39.674365,0.181690928 L53.741256,0.181690928 C53.8654365,0.181690928 53.9664115,0.284333391 53.9664115,0.410564494 L53.9664115,1.93936341 C53.9664115,2.06559452 53.8654365,2.16823698 53.741256,2.16823698" id="Fill-2"></path>
                        <path d="M63.7170893,11.9250087 L68.5720451,11.9250087 C68.7269571,11.9250087 68.8354583,11.7707263 68.7859115,11.6221816 L66.2126156,3.91188378 L66.1367275,3.91188378 L63.5038501,11.6209065 C63.453049,11.7694512 63.5621773,11.9250087 63.7170893,11.9250087 L63.7170893,11.9250087 Z M69.4312738,14.0409735 L62.8415541,14.0409735 C62.7455965,14.0409735 62.6603008,14.102814 62.6283149,14.195256 L61.0942467,18.694311 C61.062888,18.786753 60.9775923,18.8485935 60.8810075,18.8485935 L58.827639,18.8485935 C58.6714726,18.8485935 58.5623443,18.6911234 58.6150269,18.5413036 L65.0742944,0.332785733 C65.1069075,0.242256356 65.191576,0.181690928 65.2869065,0.181690928 L67.1000672,0.181690928 C67.1953977,0.181690928 67.2806934,0.242893887 67.3126792,0.334698326 L73.6364771,18.5432162 C73.6885325,18.6923984 73.5794042,18.8485935 73.423865,18.8485935 L71.368615,18.8485935 C71.2720302,18.8485935 71.1861073,18.7861155 71.1553758,18.6936735 L69.6451402,14.1965311 C69.6137815,14.1034516 69.5278586,14.0409735 69.4312738,14.0409735 L69.4312738,14.0409735 Z" id="Fill-3"></path>
                        <path d="M99.6704796,0.464754614 L95.3266708,18.6732725 C95.302211,18.775915 95.2118979,18.8485935 95.107787,18.8485935 L93.2375534,18.8485935 C93.142223,18.8485935 93.0569273,18.7873905 93.0249414,18.6955861 L89.1301894,7.50181986 L89.0041274,7.50181986 L85.1093754,18.6955861 C85.0773895,18.7873905 84.9920938,18.8485935 84.8967633,18.8485935 L83.0265297,18.8485935 C82.9224188,18.8485935 82.8321057,18.775915 82.8076459,18.6732725 L78.4889241,0.464754614 C78.4550567,0.320035117 78.5623035,0.181690928 78.7084351,0.181690928 L80.925496,0.181690928 C81.0321156,0.181690928 81.1243103,0.257557096 81.1462614,0.363387213 L84.1360009,14.6944426 L84.2244325,14.7071932 L87.8664333,4.07891686 C87.8984192,3.98711242 87.9837149,3.92527193 88.0796725,3.92527193 L90.0546442,3.92527193 C90.1506019,3.92527193 90.2358976,3.98647489 90.2678834,4.07827933 L93.948769,14.7460826 L94.0240299,14.7460826 L96.9880554,0.364024744 C97.0100065,0.257557096 97.1022011,0.181690928 97.2088207,0.181690928 L99.4509686,0.181690928 C99.5971002,0.181690928 99.7049742,0.320672648 99.6704796,0.464754614" id="Fill-4"></path>
                        <path d="M109.390426,18.8485935 L107.343956,18.8485935 C107.219149,18.8485935 107.118174,18.745951 107.118174,18.6190824 L107.118174,0.410564494 C107.118174,0.284333391 107.219149,0.181690928 107.343956,0.181690928 L109.390426,0.181690928 C109.514606,0.181690928 109.615581,0.284333391 109.615581,0.410564494 L109.615581,18.6190824 C109.615581,18.745951 109.514606,18.8485935 109.390426,18.8485935" id="Fill-5"></path>
                        <path d="M121.190709,9.15684988 C121.190709,9.28371851 121.291684,9.38636098 121.415865,9.38636098 L125.731451,9.38636098 C128.026908,9.46350221 129.439305,8.00228156 129.439305,5.79706243 C129.439305,3.61734454 128.014992,2.09109575 125.731451,2.16823698 L121.415865,2.16823698 C121.291684,2.16823698 121.190709,2.27087944 121.190709,2.39774808 L121.190709,9.15684988 L121.190709,9.15684988 Z M128.178057,11.0241777 C128.047605,11.0688048 127.982379,11.2154369 128.044469,11.3397554 L131.457551,18.1179832 L131.457551,18.8485935 L128.926903,18.8485935 C128.839726,18.8485935 128.760075,18.797591 128.723072,18.7172621 L125.375843,11.4927628 C125.33884,11.4124339 125.259188,11.3614315 125.172011,11.3614315 L121.415865,11.3614315 C121.291684,11.3614315 121.190709,11.4640739 121.190709,11.590305 L121.190709,18.6190824 C121.190709,18.745951 121.089734,18.8485935 120.964926,18.8485935 L118.931628,18.8485935 C118.807447,18.8485935 118.706472,18.745951 118.706472,18.6190824 L118.706472,0.410564494 C118.706472,0.284333391 118.807447,0.181690928 118.931628,0.181690928 L125.731451,0.181690928 C129.288156,0.0917990814 131.936712,2.19437574 131.936712,5.77092367 C131.936712,8.23944302 130.627173,10.1915624 128.178057,11.0241777 L128.178057,11.0241777 Z" id="Fill-6"></path>
                        <path d="M149.456825,10.1941125 L142.365993,10.1941125 C142.241185,10.1941125 142.14021,10.296755 142.14021,10.4236236 L142.14021,16.645287 C142.14021,16.7715181 142.241185,16.8741605 142.365993,16.8741605 L150.35243,16.8741605 C150.477237,16.8741605 150.578212,16.976803 150.578212,17.1036716 L150.578212,18.6190824 C150.578212,18.745951 150.477237,18.8485935 150.35243,18.8485935 L139.881756,18.8485935 C139.756948,18.8485935 139.655973,18.745951 139.655973,18.6190824 L139.655973,0.410564494 C139.655973,0.284333391 139.756948,0.181690928 139.881756,0.181690928 L150.213824,0.181690928 C150.338632,0.181690928 150.439607,0.284333391 150.439607,0.410564494 L150.439607,1.93936341 C150.439607,2.06559452 150.338632,2.16823698 150.213824,2.16823698 L142.365993,2.16823698 C142.241185,2.16823698 142.14021,2.27087944 142.14021,2.39774808 L142.14021,7.97805539 C142.14021,8.10492402 142.241185,8.20756648 142.365993,8.20756648 L149.456825,8.20756648 C149.581632,8.20756648 149.682607,8.31020895 149.682607,8.43644005 L149.682607,9.96523897 C149.682607,10.0914701 149.581632,10.1941125 149.456825,10.1941125" id="Fill-7"></path>
                        <path d="M2.61965683,11.0796428 L2.61965683,2.39774808 C2.61965683,2.27087944 2.72063188,2.16823698 2.84543955,2.16823698 L5.91232157,2.16823698 C7.61509962,2.16823698 8.95160791,2.6298093 9.9231008,3.54020331 C10.5496479,4.12035636 10.9541752,4.99632372 11.1818395,6.10435229 L13.4352765,4.79486398 C13.073397,3.59056825 12.4970239,2.64766016 11.6885963,1.98909082 C10.2379423,0.784157557 8.30812715,0.181690928 5.91232157,0.181690928 L0.361202405,0.181690928 C0.236394732,0.181690928 0.13541968,0.284333391 0.13541968,0.410564494 L0.13541968,12.5230126 L2.61965683,11.0796428" id="Fill-22"></path>
                        <path d="M11.3674831,7.70646725 C11.374382,7.88178823 11.3988418,8.03543316 11.3988418,8.2203171 L11.3988418,10.7965792 C11.3988418,13.2969751 10.90651,14.9379794 9.9231008,15.7202297 C8.95160791,16.4890919 7.61509962,16.8741605 5.91232157,16.8741605 L2.84543955,16.8741605 C2.72063188,16.8741605 2.61965683,16.7715181 2.61965683,16.645287 L2.61965683,12.7895005 L0.13541968,14.2328703 L0.13541968,18.6190824 C0.13541968,18.745951 0.236394732,18.8485935 0.361202405,18.8485935 L5.91232157,18.8485935 C8.30812715,18.8485935 10.2379423,18.2588775 11.6885963,17.0915585 C13.1517938,15.912764 13.8830789,13.8095498 13.8830789,10.7965792 L13.8830789,8.2451808 C13.8830789,7.55282233 13.8391767,6.91274138 13.7601528,6.31601253 L11.3674831,7.70646725" id="Fill-23"></path>
                    </g>
                </g>
            </g>
        </g>
    </g>
</svg>