<?xml version="1.0" encoding="UTF-8" standalone="no"?>
<svg width="48px" height="39px" viewBox="0 0 48 39" version="1.1" xmlns="http://www.w3.org/2000/svg" xmlns:xlink="http://www.w3.org/1999/xlink">
    <!-- Generator: Sketch 46.2 (44496) - http://www.bohemiancoding.com/sketch -->
    <title>noun_506921_cc</title>
    <desc>Created with Sketch.</desc>
    <defs></defs>
    <g id="Page-1" stroke="none" stroke-width="1" fill="none" fill-rule="evenodd">
        <g id="Telepresence-R3" transform="translate(-307.000000, -580.000000)" fill-rule="nonzero" fill="#F9634E">
            <g id="Group-2" transform="translate(251.000000, 559.000000)">
                <g id="noun_506921_cc" transform="translate(56.000000, 21.000000)">
                    <g id="Group">
                        <path d="M0.945660655,2.98040357e-05 C0.432702394,0.0477501519 -0.00221412724,0.5212369 8.48145355e-06,1.02959502 L8.48145355e-06,30.8869709 C6.58727579e-05,31.4260512 0.497137177,31.9164846 1.04348674,31.9165361 L31.5815323,31.9165361 C32.5138383,35.4599392 35.7760696,38.0939274 39.6521844,38.0939274 C44.2501983,38.0939274 48.0000105,34.3941333 48.0000105,29.8574057 C48.0000105,26.0329827 45.3304279,22.814253 41.739141,21.8943879 L41.739141,7.20698633 C41.7390888,6.66792142 41.2420123,6.17747259 40.6956627,6.17742111 L22.3206606,6.17742111 L16.385878,0.289595021 C16.1917128,0.10427843 15.922318,-0.00204476988 15.6521823,2.98040357e-05 L0.945660655,2.98040357e-05 L0.945660655,2.98040357e-05 Z M2.086965,2.05916024 L15.2282693,2.05916024 L21.1304432,7.93089937 C21.3257771,8.12580636 21.602638,8.23863641 21.8804432,8.23655154 L39.6521844,8.23655154 L39.6521844,21.6208839 C35.0541653,21.6208839 31.3043583,25.3207295 31.3043583,29.8574057 L2.086965,29.8574057 L2.086965,2.05916024 Z M39.6521844,23.6800144 C43.1223236,23.6800144 45.913054,26.4335351 45.913054,29.8574057 C45.913054,33.2812763 43.1223236,36.034797 39.6521844,36.034797 C36.1820401,36.034797 33.3913149,33.2812763 33.3913149,29.8574057 C33.3913149,26.4335351 36.1820401,23.6800144 39.6521844,23.6800144 Z M39.6521844,25.2243622 C39.0758192,25.2243622 38.6087062,25.6852985 38.6087062,26.2539274 L38.6087062,30.9834926 L37.7771844,30.1630836 C37.3696436,29.7609869 36.7173444,29.7609869 36.3097931,30.1630836 C35.9022418,30.5651288 35.8941027,31.1967671 36.3097931,31.6109097 C37.1586157,32.4536088 38.048807,33.3733709 38.9021844,34.1526488 C39.092661,34.3538773 39.3510836,34.4904491 39.6521844,34.4904491 C39.9532853,34.4904491 40.2117131,34.3538773 40.4021844,34.1526488 C41.270807,33.3888658 42.127294,32.4351281 42.9945757,31.6109097 C43.414341,31.1967671 43.402127,30.5651288 42.9945757,30.1630836 C42.5870244,29.7609869 41.9347253,29.7609869 41.5271844,30.1630836 L40.6956627,30.9834926 L40.6956627,26.2539274 C40.6956627,25.6852985 40.2285496,25.2243622 39.6521844,25.2243622 Z" id="Shape"></path>
                    </g>
                </g>
            </g>
        </g>
    </g>
</svg>