<?xml version="1.0" encoding="UTF-8" standalone="no"?>
<svg width="32px" height="41px" viewBox="0 0 32 41" version="1.1" xmlns="http://www.w3.org/2000/svg" xmlns:xlink="http://www.w3.org/1999/xlink">
    <!-- Generator: Sketch 46.2 (44496) - http://www.bohemiancoding.com/sketch -->
    <title>noun_69645_cc</title>
    <desc>Created with Sketch.</desc>
    <defs></defs>
    <g id="Page-1" stroke="none" stroke-width="1" fill="none" fill-rule="evenodd">
        <g id="Telepresence-R3" transform="translate(-899.000000, -578.000000)" fill-rule="nonzero" fill="#F9634E">
            <g id="Group-2" transform="translate(251.000000, 559.000000)">
                <g id="noun_69645_cc" transform="translate(648.000000, 19.000000)">
                    <path d="M15.6805648,40.8275862 C9.45011099,40.8275862 5.59945914,25.7371138 5.52049966,21.6268542 C5.41766871,16.1751786 7.7478915,12.4016455 12.6452155,10.104951 C13.4586818,9.72247355 15.3647269,8.82758621 17.3515678,8.82758621 C19.1143841,8.82758621 20.5778888,9.50469933 21.699848,10.8442853 C24.07965,13.6771802 23.5618227,17.124967 20.241852,20.5526234 C18.7710021,22.0697228 17.2542456,23.6380632 20.001301,28.1564207 C22.0193584,31.4706149 22.4196646,35.139836 21.0498095,37.7311662 C20.0637341,39.5978024 18.2348122,40.6939936 15.9009169,40.8220961 C15.8843905,40.8239261 15.6970912,40.8275862 15.6805648,40.8275862 Z M17.3497315,10.6557916 C15.777887,10.6557916 14.1307555,11.4317267 13.4274652,11.761133 C9.19486988,13.7467215 7.26862582,16.8724221 7.35493037,21.5920835 C7.43205358,25.7316237 11.3726825,38.9993808 15.6787286,38.9993808 L15.6787286,39.9143985 L15.7944134,38.9957207 C17.4874515,38.9023889 18.7397856,38.1667147 19.4265495,36.8765397 C20.4805667,34.8781409 20.0912781,31.8256418 18.4312928,29.098889 C15.2178255,23.8155766 16.9108637,21.3523489 18.9197398,19.2752586 C22.924638,15.1448686 20.9451422,12.789613 20.2932675,12.015508 C19.5238716,11.1004902 18.5616677,10.6557916 17.3497315,10.6557916 Z" id="Shape"></path>
                    <path d="M2.75862069,16.5517241 C1.23770115,16.5517241 0,15.314023 0,13.7931034 C0,12.2721839 1.23770115,11.0344828 2.75862069,11.0344828 C4.27954023,11.0344828 5.51724138,12.2721839 5.51724138,13.7931034 C5.51724138,15.314023 4.28137931,16.5517241 2.75862069,16.5517241 Z M2.75862069,12.8735632 C2.25103448,12.8735632 1.83908046,13.2910345 1.83908046,13.7931034 C1.83908046,14.2988506 2.25103448,14.7126437 2.75862069,14.7126437 C3.26436782,14.7126437 3.67816092,14.2988506 3.67816092,13.7931034 C3.67816092,13.2891954 3.2662069,12.8735632 2.75862069,12.8735632 Z" id="Shape"></path>
                    <path d="M6.06896552,11.0344828 C4.54804598,11.0344828 3.31034483,9.79678161 3.31034483,8.27586207 C3.31034483,6.75494253 4.54804598,5.51724138 6.06896552,5.51724138 C7.58988506,5.51724138 8.82758621,6.75494253 8.82758621,8.27586207 C8.82758621,9.79678161 7.58988506,11.0344828 6.06896552,11.0344828 Z M6.06896552,7.35632184 C5.56137931,7.35632184 5.14942529,7.7737931 5.14942529,8.27586207 C5.14942529,8.7816092 5.56137931,9.1954023 6.06896552,9.1954023 C6.57655172,9.1954023 6.98850575,8.7816092 6.98850575,8.27586207 C6.98850575,7.77195402 6.57655172,7.35632184 6.06896552,7.35632184 Z" id="Shape"></path>
                    <path d="M11.5862069,7.72413793 C10.0652874,7.72413793 8.82758621,6.48643678 8.82758621,4.96551724 C8.82758621,3.4445977 10.0652874,2.20689655 11.5862069,2.20689655 C13.1071264,2.20689655 14.3448276,3.4445977 14.3448276,4.96551724 C14.3448276,6.48643678 13.1071264,7.72413793 11.5862069,7.72413793 Z M11.5862069,4.04597701 C11.0804598,4.04597701 10.6666667,4.46344828 10.6666667,4.96551724 C10.6666667,5.47126437 11.0804598,5.88505747 11.5862069,5.88505747 C12.0937931,5.88505747 12.5057471,5.47126437 12.5057471,4.96551724 C12.5057471,4.4616092 12.0937931,4.04597701 11.5862069,4.04597701 Z" id="Shape"></path>
                    <path d="M18.2068966,5.51724138 C16.6878161,5.51724138 15.4482759,4.27954023 15.4482759,2.75862069 C15.4482759,1.23770115 16.6878161,0 18.2068966,0 C19.7278161,0 20.9655172,1.23770115 20.9655172,2.75862069 C20.9655172,4.27954023 19.7278161,5.51724138 18.2068966,5.51724138 Z M18.2068966,1.83908046 C17.7011494,1.83908046 17.2873563,2.25655172 17.2873563,2.75862069 C17.2873563,3.26436782 17.7011494,3.67816092 18.2068966,3.67816092 C18.7144828,3.67816092 19.1264368,3.26436782 19.1264368,2.75862069 C19.1264368,2.25471264 18.7144828,1.83908046 18.2068966,1.83908046 Z" id="Shape"></path>
                    <path d="M27.0344828,8.82758621 C24.2974897,8.82758621 22.0689655,6.84844138 22.0689655,4.4137931 C22.0689655,1.97914483 24.2974897,0 27.0344828,0 C29.7714759,0 32,1.97914483 32,4.4137931 C32,6.84844138 29.7714759,8.82758621 27.0344828,8.82758621 Z M27.0344828,1.76551724 C25.3918897,1.76551724 24.0551724,2.95371034 24.0551724,4.4137931 C24.0551724,5.87387586 25.3918897,7.06206897 27.0344828,7.06206897 C28.6770759,7.06206897 30.0137931,5.87387586 30.0137931,4.4137931 C30.0137931,2.95371034 28.6770759,1.76551724 27.0344828,1.76551724 Z" id="Shape"></path>
                </g>
            </g>
        </g>
    </g>
</svg>