<?xml version="1.0" encoding="UTF-8" standalone="no"?>
<svg width="61px" height="56px" viewBox="0 0 61 56" version="1.1" xmlns="http://www.w3.org/2000/svg" xmlns:xlink="http://www.w3.org/1999/xlink">
    <!-- Generator: Sketch 46.2 (44496) - http://www.bohemiancoding.com/sketch -->
    <title>“</title>
    <desc>Created with Sketch.</desc>
    <defs></defs>
    <g id="Page-1" stroke="none" stroke-width="1" fill="none" fill-rule="evenodd">
        <g id="Telepresence-R3" transform="translate(-325.000000, -1150.000000)" fill="#2B2F3E">
            <g id="Group-22-Copy-2" transform="translate(240.000000, 1085.000000)">
                <g id="Group-15">
                    <path d="M107.373148,96.4151463 L107.373148,120.643064 L85,120.643064 L85,101.51576 C85,91.1599163 86.2365002,83.6636341 88.7095376,79.0266889 C91.9553992,72.8440954 97.094603,68.1685792 104.127303,65 L109.227917,73.1146134 C104.977384,74.8921091 101.847493,77.5389922 99.8381503,81.0553423 C97.8288074,84.5716924 96.7082291,89.6915758 96.4763819,96.4151463 L107.373148,96.4151463 Z M143.309294,96.4151463 L143.309294,120.643064 L120.936145,120.643064 L120.936145,101.51576 C120.936145,91.1599163 122.172645,83.6636341 124.645683,79.0266889 C127.891544,72.8440954 133.030748,68.1685792 140.063448,65 L145.164062,73.1146134 C140.913529,74.8921091 137.783638,77.5389922 135.774296,81.0553423 C133.764953,84.5716924 132.644374,89.6915758 132.412527,96.4151463 L143.309294,96.4151463 Z" id="“"></path>
                </g>
            </g>
        </g>
    </g>
</svg>