<?xml version="1.0" encoding="UTF-8" standalone="no"?>
<svg width="38px" height="38px" viewBox="0 0 38 38" version="1.1" xmlns="http://www.w3.org/2000/svg" xmlns:xlink="http://www.w3.org/1999/xlink">
    <!-- Generator: Sketch 46.2 (44496) - http://www.bohemiancoding.com/sketch -->
    <title>noun_912031_cc</title>
    <desc>Created with Sketch.</desc>
    <defs></defs>
    <g id="Page-1" stroke="none" stroke-width="1" fill="none" fill-rule="evenodd">
        <g id="Telepresence-R3" transform="translate(-694.000000, -580.000000)" fill-rule="nonzero" fill="#F9634E">
            <g id="Group-2" transform="translate(251.000000, 559.000000)">
                <g id="noun_912031_cc" transform="translate(443.000000, 21.000000)">
                    <g id="Group">
                        <path d="M12.9022503,0 C12.8118962,0 12.7193926,0.0119052823 12.6332685,0.0503897996 C12.5429145,0.0890819672 12.4583853,0.145424408 12.389597,0.209795993 L0.210040146,12.3669581 C0.141251825,12.4313989 0.0975656934,12.5117596 0.0588029197,12.6018106 C0.0201788321,12.6921384 0,12.7801129 0,12.8703716 L0,37.1932095 C0,37.2833989 0.0201788321,37.3757341 0.0588029197,37.4617013 C0.131959854,37.6335665 0.269051095,37.774561 0.445529197,37.8476539 C0.531514599,37.8862769 0.619788321,37.8979745 0.714441606,37.8979745 L25.0900568,37.8979745 C25.1804802,37.8979745 25.2729838,37.8863461 25.3590386,37.8476539 C25.4494619,37.8132532 25.5255313,37.7567723 25.5943889,37.696623 L37.7737357,25.5310164 C37.8426627,25.4622842 37.8990386,25.3863534 37.9335021,25.2960947 C37.9721955,25.2101967 37.9839145,25.122153 37.9839145,25.0276029 L37.9839145,0.713140255 C37.9839145,0.623020036 37.963805,0.522240437 37.9251116,0.436204007 C37.8518853,0.260116576 37.719024,0.123413479 37.5468451,0.0503897996 C37.4564218,0.0117668488 37.3598962,3.93451715e-15 37.2694729,3.93451715e-15 L12.9022503,0 Z M13.6167612,1.41790528 L35.5632174,1.41790528 L24.7959035,12.1655373 L13.6167612,12.1655373 L13.6167612,10.8399672 C13.6167612,10.4491694 13.2981992,10.126827 12.9022503,10.126827 C12.51067,10.126827 12.1877393,10.4491694 12.1877393,10.8399672 L12.1877393,12.1655373 L2.43754745,12.1655373 L12.2045897,2.40791257 C12.2433524,2.76015665 12.5407649,3.03716211 12.9022503,3.03716211 C13.2981992,3.03716211 13.6167612,2.71931876 13.6167612,2.32402186 L13.6167612,1.41790528 L13.6167612,1.41790528 Z M36.5634218,2.41635701 L36.5634218,24.3312823 L34.4284875,24.3312823 C34.0368378,24.3312823 33.7140459,24.6407505 33.7140459,25.0359781 C33.7140459,25.4269144 34.0368378,25.7491876 34.4284875,25.7491876 L35.5632174,25.7491876 L25.7961079,35.4900619 L25.7961079,25.7491876 L25.8969327,25.7491876 C26.2928816,25.7491876 26.611513,25.4269144 26.611513,25.0359781 C26.611513,24.6407505 26.2928816,24.3312823 25.8969327,24.3312823 L25.7961079,24.3312823 L25.7961079,13.1640583 L36.5634218,2.41635701 L36.5634218,2.41635701 Z M12.9022503,4.45513661 C12.51067,4.45513661 12.1877393,4.77304918 12.1877393,5.16827687 L12.1877393,8.00408743 C12.1877393,8.39502368 12.51067,8.70892168 12.9022503,8.70892168 C13.2981992,8.70892168 13.6167612,8.39502368 13.6167612,8.00408743 L13.6167612,5.16827687 C13.6167612,4.77304918 13.2981992,4.45513661 12.9022503,4.45513661 L12.9022503,4.45513661 Z M1.42895255,13.5835118 L12.1877393,13.5835118 L12.1877393,13.6759162 C12.1877393,14.0710055 12.51067,14.3890565 12.9022503,14.3890565 C13.2981992,14.3890565 13.6167612,14.0710055 13.6167612,13.6759162 L13.6167612,13.5835118 L24.3756152,13.5835118 L24.3756152,24.3312823 L23.0559473,24.3312823 C22.6599984,24.3312823 22.3415057,24.6407505 22.3415057,25.0359781 C22.3415057,25.4269144 22.6599984,25.7491876 23.0559473,25.7491876 L24.3756152,25.7491876 L24.3756152,36.4885137 L1.42895255,36.4885137 L1.42895255,13.5835118 L1.42895255,13.5835118 Z M12.9022503,15.815337 C12.51067,15.815337 12.1877393,16.1248051 12.1877393,16.520102 L12.1877393,19.3559126 C12.1877393,19.7511403 12.51067,20.0690528 12.9022503,20.0690528 C13.2981992,20.0690528 13.6167612,19.7511403 13.6167612,19.3559126 L13.6167612,16.520102 C13.6167612,16.1248051 13.2981992,15.815337 12.9022503,15.815337 Z M12.9022503,21.4869581 C12.51067,21.4869581 12.1877393,21.8093005 12.1877393,22.2000984 L12.1877393,24.7423607 L10.3890495,26.5461494 C10.1136189,26.8211475 10.1136189,27.2696721 10.3890495,27.5446011 C10.5267649,27.6820656 10.7126043,27.7543971 10.8933123,27.7543971 C11.0740897,27.7543971 11.2556298,27.6820656 11.3977138,27.5446011 L13.1964729,25.7491876 L14.5245313,25.7491876 C14.9161116,25.7491876 15.230513,25.4269144 15.230513,25.0359781 C15.230513,24.6407505 14.9161116,24.3312823 14.5245313,24.3312823 L13.6167612,24.3312823 L13.6167612,22.2000984 C13.6167612,21.8093005 13.2981992,21.4869581 12.9022503,21.4869581 L12.9022503,21.4869581 Z M17.3655167,24.3312823 C16.9739364,24.3312823 16.6510057,24.6407505 16.6510057,25.0359781 C16.6510057,25.4269144 16.9739364,25.7491876 17.3655167,25.7491876 L20.2065714,25.7491876 C20.6025203,25.7491876 20.921013,25.4269144 20.921013,25.0359781 C20.921013,24.6407505 20.6025203,24.3312823 20.2065714,24.3312823 L17.3655167,24.3312823 Z M28.7464473,24.3312823 C28.3547977,24.3312823 28.0320057,24.6407505 28.0320057,25.0359781 C28.0320057,25.4269144 28.3547977,25.7491876 28.7464473,25.7491876 L31.5874327,25.7491876 C31.9790824,25.7491876 32.2934145,25.4269144 32.2934145,25.0359781 C32.2934145,24.6407505 31.9747831,24.3312823 31.5874327,24.3312823 L28.7464473,24.3312823 Z M8.87612252,28.3417013 C8.69423566,28.3417013 8.51789624,28.4118871 8.38011157,28.5514973 L6.36292179,30.5566375 C6.08742179,30.8315665 6.08742179,31.2885355 6.36292179,31.5635337 C6.50056777,31.700929 6.68647653,31.7648852 6.86718456,31.7648852 C7.04796193,31.7648852 7.22541084,31.700929 7.36305682,31.5635337 L9.38038529,29.558255 C9.65588529,29.2790346 9.65588529,28.826357 9.38038529,28.5514973 C9.24273931,28.4139636 9.05794004,28.342255 8.87612252,28.3417013 L8.87612252,28.3417013 Z M4.85831595,32.3521202 C4.67705318,32.3521202 4.49377945,32.4244517 4.35398383,32.561847 L2.33665328,34.5755009 C2.06122263,34.8504991 2.06122263,35.2990237 2.33665328,35.5739526 C2.47436861,35.7114171 2.66027737,35.7836794 2.8409854,35.7836794 C3.02176277,35.7836794 3.20760219,35.7114171 3.34531752,35.5739526 L5.35418821,33.5602987 C5.62961887,33.2853698 5.62961887,32.8368452 5.35418821,32.561847 C5.21647288,32.4244517 5.03957872,32.3521202 4.85831595,32.3521202 Z" id="Shape"></path>
                    </g>
                </g>
            </g>
        </g>
    </g>
</svg>