<?xml version="1.0" encoding="UTF-8" standalone="no"?>
<svg width="34px" height="40px" viewBox="0 0 34 40" version="1.1" xmlns="http://www.w3.org/2000/svg" xmlns:xlink="http://www.w3.org/1999/xlink">
    <!-- Generator: Sketch 46.2 (44496) - http://www.bohemiancoding.com/sketch -->
    <title>noun_542334_cc</title>
    <desc>Created with Sketch.</desc>
    <defs></defs>
    <g id="Page-1" stroke="none" stroke-width="1" fill="none" fill-rule="evenodd">
        <g id="Telepresence-R3" transform="translate(-1094.000000, -579.000000)" fill="#F9634E">
            <g id="Group-2" transform="translate(251.000000, 559.000000)">
                <g id="noun_542334_cc" transform="translate(843.000000, 20.000000)">
                    <g id="Group" transform="translate(0.000000, 0.032629)">
                        <path d="M16.9683784,0 C12.0757768,0 8.0951871,3.99775238 8.0952381,8.9047619 C8.09528505,13.8117718 12.0758464,17.8095241 16.9683784,17.8095241 C21.8609104,17.8095241 25.8414717,13.8117718 25.8415187,8.9047619 C25.8415672,3.99775238 21.86098,0 16.9683784,0 Z M16.9683784,1.61904762 C20.9824427,1.61904762 24.2225115,4.86928555 24.222471,8.9047619 C24.2224322,12.9402384 20.982386,16.1904765 16.9683784,16.1904765 C12.9543708,16.1904765 9.71432457,12.9402384 9.71428571,8.9047619 C9.71424362,4.86928555 12.9543141,1.61904762 16.9683784,1.61904762 Z M12.1428571,19.4285718 C5.4276491,19.4285718 0,24.8818431 0,31.6188621 L0,38.929874 C4.46465791e-05,39.3769432 0.362454649,39.7393532 0.80952381,39.7393978 L7.04854907,39.7393978 C7.20311337,39.7867533 7.3683152,39.7867533 7.5228795,39.7393978 L26.4771211,39.7393978 C26.631685,39.786753 26.7968864,39.786753 26.9514503,39.7393978 L33.1904762,39.7393978 C33.6375454,39.7393532 33.9999554,39.3769432 34,38.929874 L34,31.6188621 C34,24.8818431 28.5723517,19.4285718 21.8571429,19.4285718 L12.1428571,19.4285718 Z M12.1428571,21.0476194 L21.8571429,21.0476194 C27.6998534,21.0476194 32.3809524,25.747224 32.3809524,31.6188621 L32.3809524,38.1203502 L27.5238095,38.1203502 L27.5238095,31.6062125 C27.5263751,31.3876707 27.4404741,31.1773751 27.2856336,31.0231301 C27.130793,30.8688851 26.9201681,30.7837951 26.7016377,30.7872027 C26.2557971,30.7941825 25.8995273,31.160348 25.9047619,31.6062125 L25.9047619,38.1203502 L8.0952381,38.1203502 L8.0952381,31.6062125 C8.09780363,31.3876705 8.01190256,31.1773749 7.85706185,31.0231298 C7.70222113,30.8688848 7.49159596,30.7837949 7.27306548,30.7872027 C6.8272252,30.7941829 6.47095589,31.1603483 6.47619048,31.6062125 L6.47619048,38.1203502 L1.61904762,38.1203502 L1.61904762,31.6188621 C1.61904762,25.747224 6.30014609,21.0476194 12.1428571,21.0476194 Z" id="Shape"></path>
                    </g>
                </g>
            </g>
        </g>
    </g>
</svg>